<svg xmlns="http://www.w3.org/2000/svg" width="117" height="26" viewBox="0 0 117 26">
    <g fill="none" fill-rule="evenodd">
        <path fill="#000" d="M36 24.802c.315-.853.633-1.705.944-2.56.202-.553.303-.615.896-.57.33.024.671.078.992.025.86-.142 1.417-.86 1.478-1.836.013-.198.012-.396.012-.595V8.98c0-.104-.004-.21.004-.313.036-.42.19-.642.609-.651a83.543 83.543 0 0 1 3.715.013c.392.01.544.217.55.612.012.668.008 1.335.008 2.003-.003 3.178.039 6.357-.028 9.537-.041 1.93-.739 3.616-2.375 4.79-.83.597-1.775.908-2.782 1.002-1.03.096-2.06.073-3.06-.24-.372-.115-.759-.23-.963-.617v-.313zM116.257 8.888c-.038.318-.085.635-.112.953a183.41 183.41 0 0 0-.198 2.554c-.043.626-.243.765-.868.66-.748-.126-1.473-.04-2.129.376-.78.497-1.056 1.264-1.07 2.135-.02 1.407-.006 2.814-.009 4.222-.001.123-.01.25-.033.37-.073.372-.232.542-.606.546-1.2.014-2.398.015-3.597-.001-.37-.003-.54-.185-.608-.549a2.046 2.046 0 0 1-.026-.372c-.002-3.544 0-7.09 0-10.633 0-.731.2-.933.917-.934.74-.001 1.48-.003 2.22 0 .67.003.898.23.927.885.019.396.055.79.085 1.196.032-.017.073-.025.08-.043.494-1.31 1.547-1.904 2.831-2.161.463-.093.95-.073 1.426-.091.405-.016.673.17.77.575v.312zM78.368 0c.547.12 1.082.252 1.542.61.928.72 1.243 1.685 1.055 2.793-.183 1.083-.862 1.826-1.903 2.148-1.234.381-2.4.225-3.323-.768-1.346-1.449-.84-4.075 1.405-4.65.198-.05.398-.089.598-.133h.626z"/>
        <path d="M39 0h6.005v5.733H39zM75 0h6.017v5.742H75z"/>
        <path fill="#000" d="M42.35 0c.537.117 1.064.243 1.517.589.954.726 1.285 1.71 1.08 2.839-.205 1.11-.917 1.836-2.01 2.158-1.31.383-2.625.008-3.362-.993-.657-.894-.735-1.896-.315-2.897.411-.98 1.221-1.488 2.263-1.637.069-.01.135-.038.202-.059h.625zM66.77 16.336c1.277.009 2.24-.894 2.236-2.173-.002-1.274-.822-2.176-2.194-2.213-1.241-.031-2.211.924-2.224 2.159-.015 1.264.92 2.217 2.183 2.227m-2.778 2.859c-.045.255-.075.468-.119.68-.07.33-.287.508-.615.512-.875.01-1.751.013-2.626-.001-.392-.006-.587-.216-.619-.603a4.636 4.636 0 0 1-.013-.406L60 2.018C60 1.147 60.145 1 61.009 1h2.908c.709.001.916.204.916.906l.001 6.411v.389c.658-.525 1.344-.836 2.117-.967 2.37-.398 4.77.648 5.922 2.757 1.424 2.606 1.388 5.24-.326 7.714-1.876 2.705-5.9 3.278-8.397 1.096-.037-.032-.083-.058-.157-.111M55.605 19.048c-1.219 1.46-2.774 1.802-4.509 1.658-1.208-.099-2.32-.449-3.271-1.226-1-.817-1.541-1.895-1.728-3.152-.077-.512-.089-1.038-.09-1.557-.012-1.909-.005-3.816-.005-5.725 0-.083-.002-.167.001-.25.016-.583.205-.784.796-.79a237.8 237.8 0 0 1 3.284 0c.594.003.808.235.81.853.001 1.71-.004 3.42.003 5.13.002.342.004.692.076 1.023.187.86.841 1.355 1.708 1.34.911-.016 1.547-.504 1.726-1.366a5.75 5.75 0 0 0 .12-1.114c.012-1.68.005-3.357.006-5.037 0-.619.195-.824.822-.83 1.073-.007 2.148-.007 3.221 0 .6.005.803.21.804.816.004 3.62.004 7.236 0 10.855-.001.642-.203.825-.856.826-.677.001-1.355.003-2.032 0-.574-.003-.805-.235-.832-.815-.01-.198-.032-.393-.054-.64M97.85 12.974h3.764c-.035-.761-.708-1.29-1.711-1.36-1.037-.07-1.898.498-2.052 1.36zm-.011 2.748c.355.86.99 1.294 1.808 1.44 1.22.216 2.4.099 3.497-.546.389-.229.662-.157.903.22.379.596.751 1.197 1.113 1.804.278.47.201.782-.26 1.085-.99.653-2.093.987-3.26 1.144-.997.134-1.99.148-2.989 0-2.968-.444-5.297-2.553-5.608-5.645-.18-1.802.2-3.458 1.349-4.888.92-1.147 2.136-1.832 3.566-2.135 1.561-.332 3.107-.278 4.588.353 1.948.83 3.077 2.352 3.506 4.394.133.627.161 1.278.192 1.92.028.617-.22.848-.843.853-.885.005-1.772 0-2.658 0H97.84zM87.91 12.39c0 .989-.05 1.949.015 2.9.062.895.8 1.408 1.754 1.317.37-.036.738-.107 1.1-.189.427-.094.637-.039.823.346.385.792.76 1.592 1.112 2.4.207.477.13.67-.326.917-1.353.733-2.804 1.019-4.333.914-1.02-.07-1.993-.312-2.858-.881-1.206-.793-1.844-1.949-2.058-3.347a11.709 11.709 0 0 1-.113-1.558c-.017-.925-.004-1.852-.004-2.82-.508 0-3.498.002-3.985 0-.156-.002-.315.006-.468-.018-.366-.056-.557-.26-.562-.634-.01-.926-.01-1.854 0-2.783.003-.4.171-.604.575-.637.517-.042 3.543-.03 4.063-.04.207-.003.415 0 .664 0v-.36c0-1.033-.003-2.066 0-3.097.003-.637.185-.817.821-.818 1.001-.002 2.001-.004 3.002.001.543.003.753.216.755.762.005 1.042.001 2.085.001 3.127v.385h.351c.981 0 1.96-.002 2.941 0 .686.001.897.212.898.893 0 .782.002 1.564 0 2.346-.002.66-.218.873-.887.873-1.083.002-2.168 0-3.281 0"/>
        <path fill="#000" d="M75 14.238v-5.38c.002-.66.19-.852.856-.854 1.064-.005 2.127-.005 3.19 0 .621.001.838.227.838.856v10.758c0 .673-.207.882-.871.883h-3.19c-.624-.001-.82-.196-.821-.821-.003-1.814-.002-3.628-.002-5.442"/>
        <path fill="#EB001B" d="M19.833 9c0 1.665-.648 3.23-1.825 4.407a6.191 6.191 0 0 1-4.409 1.826 6.189 6.189 0 0 1-4.407-1.826A6.191 6.191 0 0 1 7.367 9H0c0 7.511 6.089 13.6 13.6 13.6 7.51 0 13.6-6.089 13.6-13.6h-7.367z"/>
        <path fill="#098EEB" d="M20 8.211h7.471V1H20z"/>
    </g>
</svg>
