<svg xmlns="http://www.w3.org/2000/svg" xmlns:xlink="http://www.w3.org/1999/xlink" width="128" height="128" viewBox="0 0 128 128">
    <defs>
        <path id="a" d="M0 117.689h83.76V0H0z"/>
    </defs>
    <g fill="none" fill-rule="evenodd" transform="translate(27 8)">
        <path fill="#3799EA" d="M33.638 44.94l-.182-.002a5.876 5.876 0 0 1-2.642-.73.5.5 0 0 1 .482-.876 4.877 4.877 0 0 0 2.192.605c1.097.05 1.96-.31 2.492-.603a.499.499 0 1 1 .484.874 5.87 5.87 0 0 1-2.826.732M33.641 56.937a7.846 7.846 0 0 1-7.02-4.36 7.245 7.245 0 0 1-.68-2.01c2.49.8 5.07 1.2 7.7 1.2 2.62 0 5.21-.4 7.69-1.2-.12.65-.33 1.28-.61 1.86a7.817 7.817 0 0 1-7.08 4.51m0-6.17c-3.91 0-6.99-.94-8.83-1.66 0 1.101.2 2.16.58 3.13a8.756 8.756 0 0 0 3.56 4.35 8.734 8.734 0 0 0 4.69 1.35c1.85 0 3.57-.569 4.99-1.55a8.83 8.83 0 0 0 3.84-7.28 24.381 24.381 0 0 1-8.83 1.66"/>
        <path fill="#3799EA" d="M40.721 52.427a7.817 7.817 0 0 1-7.08 4.51c-3.07 0-5.74-1.78-7.02-4.36a19.524 19.524 0 0 0 6.8 1.246c3.236.01 5.783-.79 7.3-1.396"/>
        <path fill="#B3E5FB" d="M67.36 102.47v4.777c0 5.215 1.777 9.442-3.438 9.442H4.358A3.359 3.359 0 0 1 1 113.33v-10.86c0-15.027 10.002-27.73 23.7-31.807a31.088 31.088 0 0 1 3.579-.853 26.728 26.728 0 0 1 2.393-.332c1.15-.13 2.323-.19 3.508-.19a33.4 33.4 0 0 1 5.902.522c1.208.214 2.405.498 3.578.853a33.14 33.14 0 0 1 13.983 8.342c6.008 6.01 9.717 14.304 9.717 23.464"/>
        <path stroke="#3799EA" stroke-width="2" d="M67.36 102.47v4.777c0 5.215 1.777 9.442-3.438 9.442H4.358A3.359 3.359 0 0 1 1 113.33v-10.86c0-15.027 10.002-27.73 23.7-31.807a31.088 31.088 0 0 1 3.579-.853 26.728 26.728 0 0 1 2.393-.332c1.15-.13 2.323-.19 3.508-.19a33.4 33.4 0 0 1 5.902.522c1.208.214 2.405.498 3.578.853a33.14 33.14 0 0 1 13.983 8.342c6.008 6.01 9.717 14.304 9.717 23.464z"/>
        <path fill="#FFF" d="M40.105 66.008v-1.536c-1.8.561-3.804.88-5.925.88-1.209 0-2.382-.107-3.508-.302a18.431 18.431 0 0 1-2.417-.586v1.544c0 2.162-1.45 4.02-3.52 4.645l-.035.01c.071 3.91 2.524 7.252 5.972 8.627a9.374 9.374 0 0 0 3.508.675c5.178 0 9.385-4.159 9.48-9.302l-.034-.01c-2.07-.625-3.52-2.483-3.52-4.645"/>
        <path stroke="#3799EA" stroke-width="2" d="M40.105 66.008v-1.536c-1.8.561-3.804.88-5.925.88-1.209 0-2.382-.107-3.508-.302a18.431 18.431 0 0 1-2.417-.586v1.544c0 2.162-1.45 4.02-3.52 4.645l-.035.01c.071 3.91 2.524 7.252 5.972 8.627a9.374 9.374 0 0 0 3.508.675c5.178 0 9.385-4.159 9.48-9.302l-.034-.01c-2.07-.625-3.52-2.483-3.52-4.645z"/>
        <path fill="#B3E5FB" d="M71.835 116.67H58.984l4.545-33.26h10.48z"/>
        <path stroke="#3799EA" stroke-width="2" d="M71.835 116.67H58.984l4.545-33.26h10.48z"/>
        <path fill="#3799EA" d="M28.386 34.892a.682.682 0 0 1-.333.91.697.697 0 0 1-.922-.327c-.317-.66-.886-1.23-1.615-1.63a4.884 4.884 0 0 0-1.15-.456c.256.312.407.708.407 1.14a1.837 1.837 0 0 1-1.847 1.827 1.839 1.839 0 0 1-1.849-1.827c0-.432.152-.828.405-1.14a4.93 4.93 0 0 0-1.147.456c-.73.402-1.299.97-1.615 1.63a.697.697 0 0 1-.923.328.68.68 0 0 1-.33-.911c.44-.924 1.213-1.704 2.194-2.248a6.81 6.81 0 0 1 3.265-.816c1.204 0 2.328.303 3.262.816.981.544 1.756 1.324 2.198 2.248zm1.915-6.011c.502.346.624 1.028.274 1.525a1.115 1.115 0 0 1-1.54.27c-1.13-.78-3.263-1.217-5.528-1.273-2.27-.056-4.615.279-6.185 1.042a1.115 1.115 0 0 1-1.482-.502c-.267-.543-.04-1.2.51-1.467 1.894-.92 4.62-1.33 7.21-1.263 2.662.064 5.25.636 6.741 1.668zm9.845 6.594a.696.696 0 0 1-.922.328.679.679 0 0 1-.33-.911c.441-.924 1.213-1.704 2.195-2.248a6.793 6.793 0 0 1 3.263-.816 6.79 6.79 0 0 1 3.263.816c.983.544 1.756 1.324 2.197 2.248a.681.681 0 0 1-.33.91.7.7 0 0 1-.924-.327c-.315-.66-.884-1.23-1.615-1.63a4.938 4.938 0 0 0-1.148-.456c.254.312.405.708.405 1.14a1.839 1.839 0 0 1-1.848 1.827 1.838 1.838 0 0 1-1.847-1.827c0-.432.152-.828.404-1.14-.41.107-.797.262-1.145.456-.73.4-1.302.97-1.618 1.63zm-1.902-4.8a1.115 1.115 0 0 1-1.542-.27 1.087 1.087 0 0 1 .273-1.525c1.492-1.031 4.081-1.604 6.74-1.67 2.593-.064 5.317.345 7.212 1.265.55.266.776.924.508 1.466a1.114 1.114 0 0 1-1.482.503c-1.569-.763-3.912-1.1-6.185-1.043-2.263.057-4.394.495-5.524 1.275zm-28.149 9.782a22.228 22.228 0 0 1-.015-.631V39.77l-.002-.156v-9.597L10 30c-.552-.133-.956-.068-1.229.14-.356.269-.599.785-.75 1.446-.18.796-.207 1.763-.107 2.783.217 2.27 1.034 4.717 2.181 6.088zM57.2 27.782c1.068-.161 1.95.079 2.655.612.798.606 1.306 1.564 1.566 2.72.233 1.025.272 2.225.153 3.46-.32 3.316-1.84 7.034-3.933 8.429-.26.173-.5.254-.728.275-.83 5.425-3.4 10.877-7.082 15.142-4.23 4.894-9.935 8.245-16.19 8.245-6.283 0-11.99-3.335-16.213-8.226-3.68-4.258-6.24-9.716-7.063-15.161a1.535 1.535 0 0 1-.726-.275c-2.094-1.395-3.61-5.113-3.933-8.428-.12-1.236-.079-2.436.153-3.46.258-1.157.768-2.115 1.565-2.721.706-.533 1.588-.773 2.654-.612v-.904a12.315 12.315 0 0 1-.656-.113C6.867 11.315 18.873-.696 35.211.032c.951-.047 1.895.029 2.834.167 1.071.129 2.12.328 3.14.593l.027.006V.8c9.163 2.41 15.86 10.239 15.745 19.977.158 1.085.242 2.195.242 3.323v3.682zM57.28 30l-.08.018v9.767l-.002.012v.03c-.002.21-.009.419-.016.632 1.146-1.373 1.963-3.818 2.183-6.088.098-1.021.072-1.988-.106-2.783-.15-.663-.397-1.18-.75-1.446-.275-.21-.679-.275-1.229-.142zm-24.8-19.45c-4.076 8.374-12.127 16.168-20.178 16.447V39.61c.011 6.08 2.633 12.567 6.81 17.402 3.825 4.428 8.946 7.453 14.527 7.453 5.553 0 10.675-3.035 14.504-7.473 4.185-4.845 6.82-11.33 6.832-17.381V24.1c0-.33-.008-.655-.023-.98-5.838.02-12.484-4.856-17.04-10.132-4.257 8.782-12.115 14.188-22.132 14.349 9.452-2.952 13.942-8.926 16.7-16.786z"/>
        <path stroke="#3799EA" stroke-width="2" d="M11.407 116.67v-10.383"/>
        <path fill="#FFF" d="M81.76 75.022H53.952a1 1 0 0 1-1-1V56.92c0-.551.45-1 1-1H81.76a1 1 0 0 1 1 1v17.102a1 1 0 0 1-1 1"/>
        <path stroke="#3799EA" stroke-width="2" d="M81.76 75.022H53.952a1 1 0 0 1-1-1V56.92c0-.551.45-1 1-1H81.76a1 1 0 0 1 1 1v17.102a1 1 0 0 1-1 1z"/>
        <path fill="#FFF" d="M63.633 75.993L52.819 72.64a1.616 1.616 0 0 0-2.205.592 2.346 2.346 0 0 0 .858 3.206l6.728 3.884c.048.028.1.046.151.068 1.506 3.83 5.08 6.625 9.34 6.996.319.027.637.04.969.04 3.31 0 6.286-1.454 8.307-3.751 1.677-1.898 2.693-5.071 2.749-7.785"/>
        <path stroke="#3799EA" stroke-linecap="round" stroke-width="2" d="M63.633 75.993L52.819 72.64a1.616 1.616 0 0 0-2.205.592 2.346 2.346 0 0 0 .858 3.206l6.728 3.884c.048.028.1.046.151.068 1.506 3.83 5.08 6.625 9.34 6.996.319.027.637.04.969.04 3.31 0 6.286-1.454 8.307-3.751 1.677-1.898 2.693-5.071 2.749-7.785"/>
        <path fill="#3799EA" d="M74.904 65.119a2.358 2.358 0 1 1 0-3.583 2.345 2.345 0 0 0-.826 1.79c0 .719.319 1.36.826 1.793M78.797 63.327a2.359 2.359 0 0 1-3.893 1.792 2.348 2.348 0 0 0 .826-1.792c0-.717-.32-1.36-.826-1.791a2.359 2.359 0 0 1 3.893 1.791"/>
        <mask id="b" fill="#fff">
            <use xlink:href="#a"/>
        </mask>
        <path fill="#3799EA" d="M56.509 70.718h4.663v-1.5h-4.663zM62.288 70.718h4.663v-1.5h-4.663zM68.066 70.718h4.663v-1.5h-4.663zM73.845 70.718h4.663v-1.5h-4.663zM62.008 65.967h-5a1 1 0 0 1-1-1v-5a1 1 0 0 1 1-1h5a1 1 0 0 1 1 1v5a1 1 0 0 1-1 1" mask="url(#b)"/>
    </g>
</svg>
