<svg xmlns="http://www.w3.org/2000/svg" width="128" height="128" viewBox="0 0 128 128">
    <g fill="none" fill-rule="evenodd">
        <path fill="#FFF" d="M120.296 102H4.704A4.708 4.708 0 0 1 0 97.287V30.713A4.709 4.709 0 0 1 4.704 26h115.592A4.709 4.709 0 0 1 125 30.713v66.574a4.708 4.708 0 0 1-4.704 4.713"/>
        <path stroke="#3799EA" stroke-width="2" d="M121.334 102H6.666C4.09 102 2 99.89 2 97.287V30.713C2 28.111 4.089 26 6.666 26h114.668c2.577 0 4.666 2.11 4.666 4.713v66.574c0 2.603-2.089 4.713-4.666 4.713z"/>
        <path fill="#3799EA" d="M63.211 73.954v-3.07h6.753V46.29h-6.753v-3.07h17.506v3.07h-6.753v24.595h6.753v3.069zM87.968 70.568h2.669c2.701 0 4.628-.484 5.783-1.446 1.153-.966 1.976-2.305 2.471-4.016.494-1.71.741-4.072.741-7.085 0-2.943-.29-5.212-.87-6.796-.58-1.585-1.41-2.804-2.49-3.655-1.082-.852-2.854-1.28-5.318-1.28h-2.986v24.278zm-4 3.386V43.22h7.288c3.352 0 5.845.586 7.475 1.75 1.63 1.174 2.855 2.936 3.673 5.3.818 2.365 1.228 5.16 1.228 8.397 0 3.061-.432 5.75-1.298 8.071-.865 2.312-2.089 4.094-3.673 5.347-1.584 1.243-4.053 1.869-7.405 1.869h-7.288zM86.537 88.528h1.544V82.26h-1.544v6.27zm-1.756 0h1.006V82.26h-1.006v6.27zm-4.611 0h3.086V82.26H80.17v6.27zm-2.532 0h1.007V82.26h-1.007v6.27zm-2.293 0h1.543V82.26h-1.543v6.27zm-4.484 0h3.086V82.26h-3.086v6.27zm-3.02 0h1.544V82.26H67.84v6.27zm-4.63.001h3.087V82.26h-3.087v6.27z"/>
        <path fill="#E1EEF4" d="M52.06 94H8.94c-.52 0-.94-.42-.94-.94V34.94c0-.52.42-.94.94-.94h43.12c.52 0 .94.42.94.94v58.12c0 .52-.42.94-.94.94"/>
        <path fill="#3799EA" d="M112.513 88.528h1.544V82.26h-1.544v6.27zm-1.757 0h1.007V82.26h-1.007v6.27zm-4.61 0h3.085V82.26h-3.086v6.27zm-2.532 0h1.007V82.26h-1.007v6.27zm-2.293 0h1.544V82.26h-1.544v6.27zm-4.485 0h3.086V82.26h-3.086v6.27zm-3.02 0h1.544V82.26h-1.544v6.27zm-4.628.001h3.086V82.26h-3.086v6.27zM33.323 67.613a3.922 3.922 0 0 1-1.855.48h-.12a3.903 3.903 0 0 1-1.736-.48.327.327 0 0 1-.13-.448.327.327 0 0 1 .447-.13c.449.25.939.381 1.44.403a3.052 3.052 0 0 0 1.639-.403.327.327 0 0 1 .447.13.328.328 0 0 1-.132.448M36.118 73.016a5.127 5.127 0 0 1-4.65 2.957 5.145 5.145 0 0 1-4.606-2.858 4.71 4.71 0 0 1-.446-1.322c1.636.524 3.328.786 5.052.786a16.45 16.45 0 0 0 5.054-.786 4.74 4.74 0 0 1-.404 1.223m-4.65-1.091c-2.565 0-4.595-.623-5.796-1.093 0 .721.131 1.419.383 2.052a5.736 5.736 0 0 0 2.335 2.86 5.731 5.731 0 0 0 3.078.884 5.73 5.73 0 0 0 3.275-1.015 5.832 5.832 0 0 0 2.193-2.838c.22-.6.328-1.266.328-1.943a16.02 16.02 0 0 1-5.796 1.093"/>
        <path fill="#3799EA" d="M36.119 73.01a5.131 5.131 0 0 1-4.65 2.962 5.151 5.151 0 0 1-4.61-2.863c.97.364 2.52.814 4.466.82a12.83 12.83 0 0 0 4.794-.919M31.828 90.447c-.72 0-1.407-.142-2.063-.404a5.544 5.544 0 0 1-3.482-4.606c1.376-.612 2.282-1.932 2.303-3.438v-.22c.273.067.546.121.819.165 1.89.328 3.854.273 5.654-.164v.153c0 1.529.906 2.882 2.303 3.504-.284 2.794-2.673 5.01-5.534 5.01zm6.385-6.091c-1.102-.338-1.844-1.31-1.844-2.423v-1.899l-.85.262a11.28 11.28 0 0 1-2.272.458c-1.19.142-2.412.11-3.612-.098a12.72 12.72 0 0 1-1.507-.36l-.851-.273v1.91c0 1.113-.743 2.085-1.877 2.423l-.47.152.01.492a6.847 6.847 0 0 0 4.335 6.265c.807.328 1.67.492 2.553.492 3.722 0 6.812-3.035 6.877-6.757v-.502l-.492-.142z"/>
        <path fill="#FFF" d="M37.362 85.436c-.284 2.795-2.673 5.01-5.534 5.01-.72 0-1.407-.14-2.063-.404a5.544 5.544 0 0 1-3.482-4.606c1.376-.611 2.282-1.931 2.303-3.438.929.24 1.9.36 2.882.36 1.233 0 2.445-.196 3.591-.567v.142c0 1.528.906 2.881 2.303 3.503"/>
        <path fill="#3799EA" d="M28.019 61.49c-.295-.6-.797-1.113-1.441-1.474a4.476 4.476 0 0 0-2.15-.535c-.786 0-1.527.197-2.139.535-.645.36-1.158.873-1.44 1.474a.442.442 0 0 0 .217.6c.23.109.492.011.601-.218.208-.426.579-.797 1.058-1.07.23-.12.492-.23.754-.295a1.18 1.18 0 0 0-.262.743c0 .665.546 1.2 1.211 1.2a1.2 1.2 0 0 0 1.212-1.2 1.18 1.18 0 0 0-.262-.743c.272.066.525.175.753.295.48.262.851.644 1.06 1.07.107.23.38.327.61.218a.443.443 0 0 0 .218-.6zm1.255-3.94c-.982-.688-2.674-1.059-4.431-1.103-1.692-.044-3.481.229-4.726.83a.708.708 0 0 0-.338.96c.174.36.611.513.971.338 1.037-.502 2.576-.72 4.06-.687 1.496.033 2.893.327 3.635.84a.744.744 0 0 0 1.015-.185.706.706 0 0 0-.186-.994zm12.814 3.94c-.283-.6-.796-1.113-1.44-1.474a4.434 4.434 0 0 0-2.14-.535c-.796 0-1.539.197-2.15.535-.644.36-1.146.873-1.441 1.474a.445.445 0 0 0 .219.6c.23.109.501.011.61-.218.208-.426.58-.808 1.06-1.07.229-.12.48-.23.753-.295a1.19 1.19 0 0 0-.274.743c0 .665.547 1.2 1.223 1.2.667 0 1.212-.535 1.212-1.2a1.18 1.18 0 0 0-.263-.743c.263.066.513.175.754.295.48.262.851.644 1.06 1.07.108.23.37.327.598.218a.442.442 0 0 0 .22-.6zm.731-4.213c-1.244-.601-3.034-.874-4.737-.83-1.746.044-3.438.415-4.42 1.102a.698.698 0 0 0-.186.994.744.744 0 0 0 1.016.185c.741-.513 2.139-.807 3.634-.84 1.485-.033 3.024.185 4.06.687a.73.73 0 0 0 .972-.338.72.72 0 0 0-.339-.96zm-14.8 4.213c-.295-.6-.797-1.113-1.441-1.474a4.476 4.476 0 0 0-2.15-.535c-.786 0-1.527.197-2.139.535-.645.36-1.158.873-1.44 1.474a.442.442 0 0 0 .217.6c.23.109.492.011.601-.218.208-.426.579-.797 1.058-1.07.23-.12.492-.23.754-.295a1.18 1.18 0 0 0-.262.743c0 .665.546 1.2 1.211 1.2a1.2 1.2 0 0 0 1.212-1.2 1.18 1.18 0 0 0-.262-.743c.272.066.525.175.753.295.48.262.851.644 1.06 1.07.107.23.38.327.61.218a.443.443 0 0 0 .218-.6zm1.255-3.94c-.982-.688-2.674-1.059-4.431-1.103-1.692-.044-3.481.229-4.726.83a.708.708 0 0 0-.338.96c.174.36.611.513.971.338 1.037-.502 2.576-.72 4.06-.687 1.496.033 2.893.327 3.635.84a.744.744 0 0 0 1.015-.185.706.706 0 0 0-.186-.994zm12.814 3.94c-.283-.6-.796-1.113-1.44-1.474a4.434 4.434 0 0 0-2.14-.535c-.796 0-1.539.197-2.15.535-.644.36-1.146.873-1.441 1.474a.445.445 0 0 0 .219.6c.23.109.501.011.61-.218.208-.426.58-.808 1.06-1.07.229-.12.48-.23.753-.295a1.19 1.19 0 0 0-.274.743c0 .665.547 1.2 1.223 1.2.667 0 1.212-.535 1.212-1.2a1.18 1.18 0 0 0-.263-.743c.263.066.513.175.754.295.48.262.851.644 1.06 1.07.108.23.37.327.598.218a.442.442 0 0 0 .22-.6zm.731-4.213c-1.244-.601-3.034-.874-4.737-.83-1.746.044-3.438.415-4.42 1.102a.698.698 0 0 0-.186.994.744.744 0 0 0 1.016.185c.741-.513 2.139-.807 3.634-.84 1.485-.033 3.024.185 4.06.687a.73.73 0 0 0 .972-.338.72.72 0 0 0-.339-.96zm0 0c-1.244-.601-3.034-.874-4.737-.83-1.746.044-3.438.415-4.42 1.102a.698.698 0 0 0-.186.994.744.744 0 0 0 1.016.185c.741-.513 2.139-.807 3.634-.84 1.485-.033 3.024.185 4.06.687a.73.73 0 0 0 .972-.338.72.72 0 0 0-.339-.96zm-.73 4.213c-.284-.6-.797-1.113-1.442-1.474a4.434 4.434 0 0 0-2.139-.535c-.796 0-1.539.197-2.15.535-.644.36-1.146.873-1.441 1.474a.445.445 0 0 0 .219.6c.23.109.501.011.61-.218.208-.426.58-.808 1.06-1.07.229-.12.48-.23.753-.295a1.19 1.19 0 0 0-.274.743c0 .665.547 1.2 1.223 1.2.667 0 1.212-.535 1.212-1.2a1.18 1.18 0 0 0-.263-.743c.263.066.513.175.754.295.48.262.851.644 1.06 1.07.108.23.37.327.598.218a.442.442 0 0 0 .22-.6zm-12.815-3.94c-.982-.688-2.674-1.059-4.431-1.103-1.692-.044-3.481.229-4.726.83a.708.708 0 0 0-.338.96c.174.36.611.513.971.338 1.037-.502 2.576-.72 4.06-.687 1.496.033 2.893.327 3.635.84a.744.744 0 0 0 1.015-.185.706.706 0 0 0-.186-.994zm-1.255 3.94c-.295-.6-.797-1.113-1.441-1.474a4.476 4.476 0 0 0-2.15-.535c-.786 0-1.527.197-2.139.535-.645.36-1.158.873-1.44 1.474a.442.442 0 0 0 .217.6c.23.109.492.011.601-.218.208-.426.579-.797 1.058-1.07.23-.12.492-.23.754-.295a1.18 1.18 0 0 0-.262.743c0 .665.546 1.2 1.211 1.2a1.2 1.2 0 0 0 1.212-1.2 1.18 1.18 0 0 0-.262-.743c.272.066.525.175.753.295.48.262.851.644 1.06 1.07.107.23.38.327.61.218a.443.443 0 0 0 .218-.6zm-1.441-1.474a4.476 4.476 0 0 0-2.15-.535c-.786 0-1.527.197-2.139.535-.645.36-1.158.873-1.44 1.474a.442.442 0 0 0 .217.6c.23.109.492.011.601-.218.208-.426.579-.797 1.058-1.07.23-.12.492-.23.754-.295a1.18 1.18 0 0 0-.262.743c0 .665.546 1.2 1.211 1.2a1.2 1.2 0 0 0 1.212-1.2 1.18 1.18 0 0 0-.262-.743c.272.066.525.175.753.295.48.262.851.644 1.06 1.07.107.23.38.327.61.218a.443.443 0 0 0 .218-.6c-.295-.6-.797-1.113-1.441-1.474zm-1.735-3.569c-1.692-.044-3.481.229-4.726.83a.708.708 0 0 0-.338.96c.174.36.611.513.971.338 1.037-.502 2.576-.72 4.06-.687 1.496.033 2.893.327 3.635.84a.744.744 0 0 0 1.015-.185.706.706 0 0 0-.186-.994c-.982-.687-2.674-1.058-4.431-1.102zm15.804 3.57a4.434 4.434 0 0 0-2.139-.536c-.796 0-1.539.197-2.15.535-.644.36-1.146.873-1.441 1.474a.445.445 0 0 0 .219.6c.23.109.501.011.61-.218.208-.426.58-.808 1.06-1.07.229-.12.48-.23.753-.295a1.19 1.19 0 0 0-.274.743c0 .665.547 1.2 1.223 1.2.667 0 1.212-.535 1.212-1.2a1.18 1.18 0 0 0-.263-.743c.263.066.513.175.754.295.48.262.851.644 1.06 1.07.108.23.37.327.598.218a.442.442 0 0 0 .22-.6c-.284-.6-.797-1.113-1.442-1.474zm2.172-2.74c-1.244-.601-3.034-.874-4.737-.83-1.746.044-3.438.415-4.42 1.102a.698.698 0 0 0-.186.994.744.744 0 0 0 1.016.185c.741-.513 2.139-.807 3.634-.84 1.485-.033 3.024.185 4.06.687a.73.73 0 0 0 .972-.338.72.72 0 0 0-.339-.96zm5.545 3.874c-.141 1.495-.677 3.1-1.43 3.995 0-.131.012-.272.012-.416v-6.438l.055-.01c.36-.09.622-.045.795.086.241.185.404.524.503.95.109.524.13 1.168.065 1.833zm-2.881 3.438c-.012 3.973-1.735 8.24-4.486 11.417-2.107 2.434-4.792 4.224-7.75 4.748-.578.11-1.179.164-1.779.164-1.451 0-2.86-.306-4.19-.873-2.009-.852-3.832-2.27-5.35-4.028-2.75-3.176-4.464-7.432-4.474-11.428v-8.284C22.737 56.12 28.03 51 30.704 45.511c-1.812 5.162-4.759 9.08-10.97 11.023 6.583-.108 11.745-3.656 14.54-9.43 2.99 3.47 7.355 6.669 11.197 6.658 0 .218.012.426.012.644v10.183zm-30.91-3.438c-.066-.677-.044-1.31.065-1.834.097-.425.261-.764.49-.949.187-.131.448-.175.809-.087l.054.01v6.44c0 .143.011.273.011.415-.754-.894-1.288-2.511-1.43-3.995zm35.145-2.139c-.175-.764-.502-1.386-1.037-1.79-.458-.35-1.037-.502-1.735-.404v-2.412c0-.742-.055-1.473-.164-2.183v-.164c0-6.319-4.377-11.384-10.336-12.955l-.023-.011a14.11 14.11 0 0 0-2.063-.383 8.793 8.793 0 0 0-1.855-.109c-10.74-.48-18.62 7.411-16.94 17.552.143.032.284.054.426.075v.59c-.698-.098-1.277.054-1.746.404-.524.404-.851 1.026-1.026 1.79-.153.677-.175 1.462-.098 2.27.207 2.183 1.21 4.617 2.587 5.534.162.12.326.175.468.185.547 3.58 2.227 7.16 4.639 9.955 1.801 2.084 4.007 3.733 6.462 4.64.426.162.862.293 1.31.402a11.679 11.679 0 0 0 6.473-.207c.446-.13.883-.294 1.31-.49 2.16-.95 4.113-2.478 5.73-4.357 2.422-2.794 4.114-6.384 4.65-9.943a.908.908 0 0 0 .48-.185c1.375-.917 2.38-3.351 2.586-5.534.077-.808.055-1.593-.098-2.27zm-23.14 1.004a4.476 4.476 0 0 0-2.15-.535c-.786 0-1.527.197-2.139.535-.645.36-1.158.873-1.44 1.474a.442.442 0 0 0 .217.6c.23.109.492.011.601-.218.208-.426.579-.797 1.058-1.07.23-.12.492-.23.754-.295a1.18 1.18 0 0 0-.262.743c0 .665.546 1.2 1.211 1.2a1.2 1.2 0 0 0 1.212-1.2 1.18 1.18 0 0 0-.262-.743c.272.066.525.175.753.295.48.262.851.644 1.06 1.07.107.23.38.327.61.218a.443.443 0 0 0 .218-.6c-.295-.6-.797-1.113-1.441-1.474zm-1.735-3.569c-1.692-.044-3.481.229-4.726.83a.708.708 0 0 0-.338.96c.174.36.611.513.971.338 1.037-.502 2.576-.72 4.06-.687 1.496.033 2.893.327 3.635.84a.744.744 0 0 0 1.015-.185.706.706 0 0 0-.186-.994c-.982-.687-2.674-1.058-4.431-1.102zm15.804 3.57a4.434 4.434 0 0 0-2.139-.536c-.796 0-1.539.197-2.15.535-.644.36-1.146.873-1.441 1.474a.445.445 0 0 0 .219.6c.23.109.501.011.61-.218.208-.426.58-.808 1.06-1.07.229-.12.48-.23.753-.295a1.19 1.19 0 0 0-.274.743c0 .665.547 1.2 1.223 1.2.667 0 1.212-.535 1.212-1.2a1.18 1.18 0 0 0-.263-.743c.263.066.513.175.754.295.48.262.851.644 1.06 1.07.108.23.37.327.598.218a.442.442 0 0 0 .22-.6c-.284-.6-.797-1.113-1.442-1.474zm2.172-2.74c-1.244-.601-3.034-.874-4.737-.83-1.746.044-3.438.415-4.42 1.102a.698.698 0 0 0-.186.994.744.744 0 0 0 1.016.185c.741-.513 2.139-.807 3.634-.84 1.485-.033 3.024.185 4.06.687a.73.73 0 0 0 .972-.338.72.72 0 0 0-.339-.96zm0 0c-1.244-.601-3.034-.874-4.737-.83-1.746.044-3.438.415-4.42 1.102a.698.698 0 0 0-.186.994.744.744 0 0 0 1.016.185c.741-.513 2.139-.807 3.634-.84 1.485-.033 3.024.185 4.06.687a.73.73 0 0 0 .972-.338.72.72 0 0 0-.339-.96zm-.73 4.213c-.284-.6-.797-1.113-1.442-1.474a4.434 4.434 0 0 0-2.139-.535c-.796 0-1.539.197-2.15.535-.644.36-1.146.873-1.441 1.474a.445.445 0 0 0 .219.6c.23.109.501.011.61-.218.208-.426.58-.808 1.06-1.07.229-.12.48-.23.753-.295a1.19 1.19 0 0 0-.274.743c0 .665.547 1.2 1.223 1.2.667 0 1.212-.535 1.212-1.2a1.18 1.18 0 0 0-.263-.743c.263.066.513.175.754.295.48.262.851.644 1.06 1.07.108.23.37.327.598.218a.442.442 0 0 0 .22-.6zm-12.815-3.94c-.982-.688-2.674-1.059-4.431-1.103-1.692-.044-3.481.229-4.726.83a.708.708 0 0 0-.338.96c.174.36.611.513.971.338 1.037-.502 2.576-.72 4.06-.687 1.496.033 2.893.327 3.635.84a.744.744 0 0 0 1.015-.185.706.706 0 0 0-.186-.994zm-1.255 3.94c-.295-.6-.797-1.113-1.441-1.474a4.476 4.476 0 0 0-2.15-.535c-.786 0-1.527.197-2.139.535-.645.36-1.158.873-1.44 1.474a.442.442 0 0 0 .217.6c.23.109.492.011.601-.218.208-.426.579-.797 1.058-1.07.23-.12.492-.23.754-.295a1.18 1.18 0 0 0-.262.743c0 .665.546 1.2 1.211 1.2a1.2 1.2 0 0 0 1.212-1.2 1.18 1.18 0 0 0-.262-.743c.272.066.525.175.753.295.48.262.851.644 1.06 1.07.107.23.38.327.61.218a.443.443 0 0 0 .218-.6zm0 0c-.295-.6-.797-1.113-1.441-1.474a4.476 4.476 0 0 0-2.15-.535c-.786 0-1.527.197-2.139.535-.645.36-1.158.873-1.44 1.474a.442.442 0 0 0 .217.6c.23.109.492.011.601-.218.208-.426.579-.797 1.058-1.07.23-.12.492-.23.754-.295a1.18 1.18 0 0 0-.262.743c0 .665.546 1.2 1.211 1.2a1.2 1.2 0 0 0 1.212-1.2 1.18 1.18 0 0 0-.262-.743c.272.066.525.175.753.295.48.262.851.644 1.06 1.07.107.23.38.327.61.218a.443.443 0 0 0 .218-.6zm1.255-3.94c-.982-.688-2.674-1.059-4.431-1.103-1.692-.044-3.481.229-4.726.83a.708.708 0 0 0-.338.96c.174.36.611.513.971.338 1.037-.502 2.576-.72 4.06-.687 1.496.033 2.893.327 3.635.84a.744.744 0 0 0 1.015-.185.706.706 0 0 0-.186-.994zm12.814 3.94c-.283-.6-.796-1.113-1.44-1.474a4.434 4.434 0 0 0-2.14-.535c-.796 0-1.539.197-2.15.535-.644.36-1.146.873-1.441 1.474a.445.445 0 0 0 .219.6c.23.109.501.011.61-.218.208-.426.58-.808 1.06-1.07.229-.12.48-.23.753-.295a1.19 1.19 0 0 0-.274.743c0 .665.547 1.2 1.223 1.2.667 0 1.212-.535 1.212-1.2a1.18 1.18 0 0 0-.263-.743c.263.066.513.175.754.295.48.262.851.644 1.06 1.07.108.23.37.327.598.218a.442.442 0 0 0 .22-.6zm.731-4.213c-1.244-.601-3.034-.874-4.737-.83-1.746.044-3.438.415-4.42 1.102a.698.698 0 0 0-.186.994.744.744 0 0 0 1.016.185c.741-.513 2.139-.807 3.634-.84 1.485-.033 3.024.185 4.06.687a.73.73 0 0 0 .972-.338.72.72 0 0 0-.339-.96zm0 0c-1.244-.601-3.034-.874-4.737-.83-1.746.044-3.438.415-4.42 1.102a.698.698 0 0 0-.186.994.744.744 0 0 0 1.016.185c.741-.513 2.139-.807 3.634-.84 1.485-.033 3.024.185 4.06.687a.73.73 0 0 0 .972-.338.72.72 0 0 0-.339-.96zm-.73 4.213c-.284-.6-.797-1.113-1.442-1.474a4.434 4.434 0 0 0-2.139-.535c-.796 0-1.539.197-2.15.535-.644.36-1.146.873-1.441 1.474a.445.445 0 0 0 .219.6c.23.109.501.011.61-.218.208-.426.58-.808 1.06-1.07.229-.12.48-.23.753-.295a1.19 1.19 0 0 0-.274.743c0 .665.547 1.2 1.223 1.2.667 0 1.212-.535 1.212-1.2a1.18 1.18 0 0 0-.263-.743c.263.066.513.175.754.295.48.262.851.644 1.06 1.07.108.23.37.327.598.218a.442.442 0 0 0 .22-.6zm-12.815-3.94c-.982-.688-2.674-1.059-4.431-1.103-1.692-.044-3.481.229-4.726.83a.708.708 0 0 0-.338.96c.174.36.611.513.971.338 1.037-.502 2.576-.72 4.06-.687 1.496.033 2.893.327 3.635.84a.744.744 0 0 0 1.015-.185.706.706 0 0 0-.186-.994zm-1.255 3.94c-.295-.6-.797-1.113-1.441-1.474a4.476 4.476 0 0 0-2.15-.535c-.786 0-1.527.197-2.139.535-.645.36-1.158.873-1.44 1.474a.442.442 0 0 0 .217.6c.23.109.492.011.601-.218.208-.426.579-.797 1.058-1.07.23-.12.492-.23.754-.295a1.18 1.18 0 0 0-.262.743c0 .665.546 1.2 1.211 1.2a1.2 1.2 0 0 0 1.212-1.2 1.18 1.18 0 0 0-.262-.743c.272.066.525.175.753.295.48.262.851.644 1.06 1.07.107.23.38.327.61.218a.443.443 0 0 0 .218-.6zm14.8-4.213c-1.244-.601-3.034-.874-4.737-.83-1.746.044-3.438.415-4.42 1.102a.698.698 0 0 0-.186.994.744.744 0 0 0 1.016.185c.741-.513 2.139-.807 3.634-.84 1.485-.033 3.024.185 4.06.687a.73.73 0 0 0 .972-.338.72.72 0 0 0-.339-.96zm-.73 4.213c-.284-.6-.797-1.113-1.442-1.474a4.434 4.434 0 0 0-2.139-.535c-.796 0-1.539.197-2.15.535-.644.36-1.146.873-1.441 1.474a.445.445 0 0 0 .219.6c.23.109.501.011.61-.218.208-.426.58-.808 1.06-1.07.229-.12.48-.23.753-.295a1.19 1.19 0 0 0-.274.743c0 .665.547 1.2 1.223 1.2.667 0 1.212-.535 1.212-1.2a1.18 1.18 0 0 0-.263-.743c.263.066.513.175.754.295.48.262.851.644 1.06 1.07.108.23.37.327.598.218a.442.442 0 0 0 .22-.6zm-12.815-3.94c-.982-.688-2.674-1.059-4.431-1.103-1.692-.044-3.481.229-4.726.83a.708.708 0 0 0-.338.96c.174.36.611.513.971.338 1.037-.502 2.576-.72 4.06-.687 1.496.033 2.893.327 3.635.84a.744.744 0 0 0 1.015-.185.706.706 0 0 0-.186-.994zm-1.255 3.94c-.295-.6-.797-1.113-1.441-1.474a4.476 4.476 0 0 0-2.15-.535c-.786 0-1.527.197-2.139.535-.645.36-1.158.873-1.44 1.474a.442.442 0 0 0 .217.6c.23.109.492.011.601-.218.208-.426.579-.797 1.058-1.07.23-.12.492-.23.754-.295a1.18 1.18 0 0 0-.262.743c0 .665.546 1.2 1.211 1.2a1.2 1.2 0 0 0 1.212-1.2 1.18 1.18 0 0 0-.262-.743c.272.066.525.175.753.295.48.262.851.644 1.06 1.07.107.23.38.327.61.218a.443.443 0 0 0 .218-.6z"/>
        <path fill="#FFF" d="M48.364 61.151c-.141 1.495-.677 3.1-1.43 3.995 0-.131.012-.272.012-.416v-6.438l.055-.01c.36-.09.622-.045.795.085.241.186.404.525.503.95.109.525.13 1.169.065 1.834M16.002 65.146c-.754-.894-1.287-2.51-1.43-3.995-.065-.677-.043-1.31.066-1.834.097-.425.261-.764.49-.949.186-.132.448-.175.809-.087l.054.01v6.44c0 .143.011.273.011.415M43.158 58.237a.729.729 0 0 1-.971.338c-1.037-.501-2.576-.72-4.061-.687-1.495.033-2.892.327-3.634.84a.743.743 0 0 1-1.016-.186.697.697 0 0 1 .186-.993c.982-.687 2.675-1.059 4.42-1.102 1.703-.044 3.493.23 4.738.83a.72.72 0 0 1 .338.96M41.87 62.09a.446.446 0 0 1-.6-.219c-.208-.425-.58-.808-1.058-1.068a3.67 3.67 0 0 0-.754-.295c.164.206.262.458.262.741 0 .666-.545 1.201-1.211 1.201a1.21 1.21 0 0 1-1.223-1.2c0-.284.109-.536.273-.742a3.2 3.2 0 0 0-.753.295c-.48.26-.852.643-1.059 1.068a.46.46 0 0 1-.612.22.444.444 0 0 1-.218-.601c.295-.601.797-1.114 1.44-1.474a4.467 4.467 0 0 1 2.152-.535 4.45 4.45 0 0 1 2.139.535c.644.36 1.157.873 1.44 1.474a.443.443 0 0 1-.218.6m-4.934 10.685a5.833 5.833 0 0 1-2.193 2.839 5.736 5.736 0 0 1-3.275 1.014 5.731 5.731 0 0 1-3.078-.884 5.738 5.738 0 0 1-2.335-2.86 5.554 5.554 0 0 1-.382-2.051c1.2.47 3.23 1.091 5.795 1.091 2.566 0 4.584-.622 5.796-1.091 0 .677-.109 1.343-.328 1.942M24.428 62.45c-.666 0-1.21-.535-1.21-1.2 0-.284.097-.536.26-.742a3.432 3.432 0 0 0-.753.295c-.48.272-.85.643-1.058 1.068a.447.447 0 0 1-.601.22.443.443 0 0 1-.217-.601c.283-.601.796-1.114 1.44-1.474a4.448 4.448 0 0 1 2.139-.535c.797 0 1.527.197 2.15.535.644.36 1.147.873 1.44 1.474a.443.443 0 0 1-.216.6.459.459 0 0 1-.612-.219c-.208-.425-.578-.808-1.06-1.068-.228-.12-.48-.23-.752-.295.164.206.262.458.262.741a1.2 1.2 0 0 1-1.212 1.201m-4.649-4.213a.71.71 0 0 1 .338-.96c1.245-.6 3.034-.874 4.726-.83 1.757.043 3.449.415 4.431 1.102a.705.705 0 0 1 .186.993.743.743 0 0 1-1.016.186c-.741-.513-2.138-.807-3.634-.84-1.484-.033-3.024.186-4.06.687a.728.728 0 0 1-.97-.338m10.15 8.798c.448.25.938.38 1.44.404a3.06 3.06 0 0 0 1.638-.404.327.327 0 0 1 .447.13.327.327 0 0 1-.131.448 3.914 3.914 0 0 1-1.856.48h-.12a3.89 3.89 0 0 1-1.736-.48.326.326 0 0 1-.13-.447.327.327 0 0 1 .447-.131m15.542-13.273c-3.84.011-8.207-3.187-11.197-6.658-2.795 5.774-7.957 9.32-14.54 9.43 6.212-1.943 9.158-5.861 10.97-11.023C28.03 51 22.736 56.12 17.454 56.305v8.284c.01 3.996 1.724 8.252 4.475 11.428 1.517 1.757 3.34 3.177 5.348 4.027v-.022l.85.274c.481.142.984.273 1.507.36 1.202.207 2.424.24 3.614.098 2.957-.524 5.642-2.314 7.749-4.748 2.75-3.176 4.474-7.444 4.486-11.417V54.405c0-.218-.012-.424-.012-.643"/>
    </g>
</svg>
