<?xml version="1.0" encoding="UTF-8"?>
<svg width="138px" height="31px" viewBox="0 0 138 31" version="1.1" xmlns="http://www.w3.org/2000/svg" xmlns:xlink="http://www.w3.org/1999/xlink">
    <!-- Generator: Sketch 48.2 (47327) - http://www.bohemiancoding.com/sketch -->
    <title>logo-footer</title>
    <desc>Created with Sketch.</desc>
    <defs>
        <polygon id="path-1" points="0.027392 0.400407673 10.95267 0.400407673 10.95267 21.76 0.027392 21.76"></polygon>
        <polygon id="path-3" points="0.0847209862 0.42624 7.21585844 0.42624 7.21585844 7.2312278 0.0847209862 7.2312278"></polygon>
        <polygon id="path-5" points="0.597178089 0.42624 7.71418013 0.42624 7.71418013 7.2207133 0.597178089 7.2207133"></polygon>
    </defs>
    <g id="wallets-good-af-v2" stroke="none" stroke-width="1" fill="none" fill-rule="evenodd" transform="translate(-192.000000, -3222.000000)">
        <g id="footers/footerBackEnd" transform="translate(0.000000, 3126.000000)">
            <g id="logo-footer" transform="translate(192.000000, 95.000000)">
                <g id="Group-3" transform="translate(42.240000, 9.813888)">
                    <mask id="mask-2" fill="white">
                        <use xlink:href="#path-1"></use>
                    </mask>
                    <g id="Clip-2"></g>
                    <path d="M0.027392,20.314368 C0.401152,19.303168 0.777472,18.293248 1.146112,17.280768 C1.385472,16.624128 1.505792,16.551168 2.208512,16.603648 C2.600192,16.633088 3.003392,16.697088 3.383552,16.634368 C4.402432,16.465408 5.062912,15.614208 5.135872,14.458368 C5.151232,14.222848 5.149952,13.988608 5.149952,13.753088 C5.149952,9.689088 5.149952,5.623808 5.149952,1.561088 C5.149952,1.436928 5.144832,1.311488 5.155072,1.189888 C5.197312,0.691968 5.379072,0.428288 5.875712,0.418048 C7.342592,0.388608 8.812032,0.397568 10.278912,0.433408 C10.743552,0.444928 10.924032,0.690688 10.931712,1.159168 C10.945792,1.950208 10.940672,2.741248 10.940672,3.532288 C10.936832,7.299328 10.986752,11.067648 10.907392,14.835968 C10.858752,17.123328 10.031872,19.121408 8.092672,20.514048 C7.109632,21.220608 5.988352,21.589248 4.795392,21.700608 C3.575552,21.814528 2.353152,21.787648 1.167872,21.416448 C0.727552,21.279488 0.269312,21.142528 0.027392,20.684288 L0.027392,20.314368 Z" id="Fill-1" fill="#FEFEFE" mask="url(#mask-2)"></path>
                </g>
                <path d="M137.33312,10.99456 C137.28832,11.37216 137.232,11.7472 137.2,12.1248 C137.11552,13.13344 137.03616,14.14208 136.96576,15.152 C136.91456,15.89312 136.67776,16.05824 135.93664,15.93408 C135.05088,15.78432 134.19072,15.88544 133.41376,16.37952 C132.4896,16.96832 132.16192,17.87712 132.14656,18.91008 C132.12096,20.57664 132.13888,22.24448 132.13504,23.9136 C132.13376,24.05952 132.12352,24.20928 132.09536,24.35264 C132.0096,24.79296 131.82144,24.99392 131.37728,24.99904 C129.95648,25.01568 128.53568,25.01696 127.11488,24.99776 C126.67712,24.99392 126.47488,24.77888 126.39424,24.34752 C126.36736,24.20288 126.36352,24.05312 126.36352,23.90592 C126.36096,19.70624 126.36224,15.504 126.36224,11.30432 C126.36224,10.43776 126.59904,10.1984 127.45024,10.19712 C128.32704,10.19584 129.20512,10.19328 130.08192,10.19712 C130.87424,10.20096 131.1456,10.46976 131.18016,11.24672 C131.20192,11.7152 131.24544,12.1824 131.28,12.66368 C131.3184,12.6432 131.36704,12.63424 131.376,12.61248 C131.96096,11.06112 133.20896,10.35584 134.73088,10.0512 C135.27872,9.94112 135.856,9.96544 136.42048,9.94368 C136.90048,9.92448 137.21792,10.14464 137.33312,10.62464 L137.33312,10.99456 Z" id="Fill-4" fill="#FEFEFE"></path>
                <g id="Group-8" transform="translate(88.320000, 0.853888)">
                    <mask id="mask-4" fill="white">
                        <use xlink:href="#path-3"></use>
                    </mask>
                    <g id="Clip-7"></g>
                    <path d="M4.075904,0.4256 C4.724864,0.56768 5.358464,0.72384 5.903744,1.14752 C7.003264,2.00256 7.377024,3.1456 7.154304,4.45888 C6.937984,5.74272 6.132864,6.62336 4.898944,7.0048 C3.435904,7.45664 2.053504,7.27104 0.960384,6.09472 C-0.634496,4.37696 -0.034176,1.26528 2.625664,0.58304 C2.859904,0.52288 3.097984,0.47808 3.334784,0.4256 L4.075904,0.4256 Z" id="Fill-6" fill="#FEFEFE" mask="url(#mask-4)"></path>
                </g>
                <g id="Group-11" transform="translate(46.080000, 0.853888)">
                    <mask id="mask-6" fill="white">
                        <use xlink:href="#path-5"></use>
                    </mask>
                    <g id="Clip-10"></g>
                    <path d="M4.567424,0.4256 C5.203584,0.56384 5.828224,0.7136 6.365824,1.1232 C7.496064,1.98464 7.889024,3.14944 7.644544,4.48832 C7.402624,5.80416 6.559104,6.66432 5.263744,7.04576 C3.711104,7.50016 2.152064,7.056 1.279104,5.86944 C0.499584,4.8096 0.407424,3.62176 0.905344,2.4352 C1.393024,1.27424 2.353024,0.67264 3.586944,0.496 C3.668864,0.48448 3.746944,0.44992 3.826304,0.4256 L4.567424,0.4256 Z" id="Fill-9" fill="#FEFEFE" mask="url(#mask-6)"></path>
                </g>
                <path d="M79.706496,20.200704 C81.219456,20.210944 82.359936,19.140864 82.356096,17.625344 C82.353536,16.114944 81.382016,15.046144 79.755136,15.002624 C78.284416,14.965504 77.134976,16.097024 77.119616,17.561344 C77.101696,19.058944 78.210176,20.189184 79.706496,20.200704 M76.414336,23.588864 C76.361856,23.890944 76.326016,24.144384 76.273536,24.395264 C76.191616,24.785664 75.933056,24.996864 75.545216,25.001984 C74.507136,25.013504 73.469056,25.017344 72.432256,25.000704 C71.967616,24.993024 71.737216,24.744704 71.698816,24.286464 C71.684736,24.126464 71.683456,23.965184 71.683456,23.805184 C71.682176,16.946944 71.682176,10.089984 71.682176,3.231744 C71.682176,2.198784 71.853696,2.024704 72.877696,2.024704 L76.324736,2.024704 C77.164416,2.025984 77.410176,2.266624 77.410176,3.098624 C77.411456,5.630464 77.411456,8.164864 77.411456,10.696704 L77.411456,11.157504 C78.190976,10.535424 79.003776,10.166784 79.920256,10.011904 C82.728576,9.539584 85.572736,10.779904 86.938496,13.279744 C88.626816,16.368384 88.584576,19.490304 86.553216,22.421504 C84.329856,25.627904 79.559296,26.306304 76.601216,23.720704 C76.556416,23.682304 76.502656,23.651584 76.414336,23.588864" id="Fill-12" fill="#FEFEFE"></path>
                <path d="M65.856512,23.28576 C64.411392,25.01632 62.568192,25.42208 60.512512,25.25184 C59.080192,25.13408 57.763072,24.71936 56.635392,23.79776 C55.450112,22.83008 54.808832,21.55264 54.587392,20.06272 C54.496512,19.456 54.482432,18.83264 54.479872,18.21696 C54.467072,15.9552 54.474752,13.69472 54.474752,11.43168 C54.474752,11.33312 54.472192,11.23456 54.476032,11.136 C54.495232,10.4448 54.719232,10.20672 55.419392,10.19904 C56.717312,10.1888 58.015232,10.19136 59.311872,10.19904 C60.015872,10.20288 60.269312,10.47808 60.270592,11.21024 C60.273152,13.23648 60.266752,15.264 60.275712,17.29024 C60.276992,17.696 60.279552,18.11072 60.365312,18.5024 C60.586752,19.52256 61.362432,20.1088 62.388992,20.09088 C63.469312,20.07168 64.223232,19.49312 64.435712,18.47168 C64.525312,18.04032 64.573952,17.5936 64.577792,17.152 C64.591872,15.1616 64.582912,13.17248 64.584192,11.18208 C64.585472,10.44864 64.815872,10.20544 65.558272,10.19904 C66.830592,10.19008 68.104192,10.19008 69.376512,10.19904 C70.088192,10.20416 70.327552,10.44608 70.328832,11.16544 C70.333952,15.45472 70.333952,19.74144 70.328832,24.03072 C70.327552,24.79104 70.088192,25.00864 69.315072,25.00992 C68.512512,25.0112 67.708672,25.01248 66.906112,25.00864 C66.226432,25.00608 65.952512,24.73088 65.920512,24.04352 C65.908992,23.80928 65.882112,23.5776 65.856512,23.28576" id="Fill-14" fill="#FEFEFE"></path>
                <path d="M115.433984,15.808256 L119.893504,15.808256 C119.852544,14.905856 119.055104,14.279936 117.865984,14.196736 C116.637184,14.113536 115.617024,14.786816 115.433984,15.808256 Z M115.419904,19.064576 C115.841024,20.084736 116.593664,20.598016 117.562624,20.770816 C119.007744,21.028096 120.408064,20.888576 121.707264,20.124416 C122.168064,19.853056 122.491904,19.938816 122.777344,20.385536 C123.226624,21.092096 123.668224,21.803776 124.097024,22.523136 C124.425984,23.079936 124.335104,23.449856 123.788544,23.809536 C122.614784,24.582656 121.307904,24.979456 119.924224,25.165056 C118.742784,25.323776 117.566464,25.340416 116.382464,25.165056 C112.865024,24.638976 110.104064,22.139136 109.735424,18.474496 C109.521664,16.339456 109.972224,14.375936 111.334144,12.681216 C112.424704,11.321856 113.865984,10.510336 115.560704,10.150656 C117.411584,9.757696 119.243264,9.821696 120.998144,10.569216 C123.307264,11.553536 124.644864,13.357056 125.154304,15.777536 C125.311744,16.519936 125.345024,17.291776 125.380864,18.053376 C125.414144,18.784256 125.119744,19.058176 124.382464,19.063296 C123.332864,19.069696 122.281984,19.064576 121.232384,19.064576 L115.894784,19.064576 L115.419904,19.064576 Z" id="Fill-16" fill="#FEFEFE"></path>
                <path d="M104.50688,15.07072 C104.50688,16.2432 104.44672,17.38112 104.5248,18.5088 C104.59776,19.56864 105.472,20.17664 106.60352,20.06912 C107.04128,20.02688 107.47776,19.9424 107.90784,19.84512 C108.41344,19.73376 108.66176,19.79904 108.8832,20.25472 C109.33888,21.19424 109.78304,22.14144 110.20032,23.10016 C110.44608,23.66464 110.3552,23.89376 109.81376,24.18688 C108.2112,25.05472 106.49088,25.39392 104.6784,25.26976 C103.47008,25.18656 102.3168,24.89984 101.29152,24.22528 C99.86176,23.28576 99.10656,21.91616 98.85184,20.25856 C98.7584,19.65056 98.73024,19.02976 98.71872,18.4128 C98.69824,17.31584 98.7136,16.2176 98.7136,15.07072 C98.112,15.07072 94.56768,15.072 93.9904,15.06944 C93.80608,15.06816 93.61792,15.07712 93.43616,15.04896 C93.00224,14.9824 92.77568,14.74048 92.77056,14.2976 C92.75904,13.19936 92.75904,12.09984 92.76928,10.99904 C92.77312,10.52416 92.9728,10.28352 93.45152,10.24384 C94.06464,10.19392 97.6512,10.208 98.26688,10.19648 C98.51264,10.19264 98.7584,10.19648 99.05408,10.19648 L99.05408,9.76896 C99.05408,8.54528 99.05024,7.3216 99.05408,6.0992 C99.05792,5.344 99.27296,5.13152 100.02688,5.13024 C101.21344,5.12768 102.39872,5.12512 103.58528,5.13152 C104.22784,5.13408 104.47744,5.38752 104.48,6.03392 C104.48512,7.26912 104.48128,8.5056 104.48128,9.7408 L104.48128,10.19648 L104.89728,10.19648 C106.05952,10.19648 107.22048,10.19392 108.38272,10.19648 C109.19552,10.19776 109.44512,10.44736 109.4464,11.25504 C109.44768,12.18176 109.44896,13.10848 109.4464,14.0352 C109.44384,14.81856 109.18784,15.06944 108.39552,15.06944 C107.11168,15.072 105.82656,15.07072 104.50688,15.07072" id="Fill-18" fill="#FEFEFE"></path>
                <path d="M89.122176,17.587072 C89.122176,15.460992 89.120896,13.336192 89.122176,11.211392 C89.123456,10.429312 89.347456,10.201472 90.135936,10.198912 C91.396736,10.192512 92.657536,10.192512 93.917056,10.198912 C94.653056,10.200192 94.910336,10.467712 94.910336,11.213952 C94.911616,15.463552 94.911616,19.714432 94.910336,23.964032 C94.910336,24.761472 94.664576,25.008512 93.877376,25.009792 C92.617856,25.011072 91.357056,25.011072 90.096256,25.009792 C89.357696,25.008512 89.124736,24.778112 89.123456,24.036992 C89.120896,21.886592 89.122176,19.737472 89.122176,17.587072" id="Fill-20" fill="#FEFEFE"></path>
                <path d="M23.506176,11.149568 C23.506176,13.123328 22.738176,14.978048 21.342976,16.373248 C19.946496,17.769728 18.091776,18.536448 16.118016,18.536448 C14.145536,18.536448 12.289536,17.769728 10.894336,16.373248 C9.499136,14.978048 8.731136,13.123328 8.731136,11.149568 L0.000256,11.149568 C0.000256,20.051968 7.216896,27.268608 16.118016,27.268608 C25.020416,27.268608 32.237056,20.051968 32.237056,11.149568 L23.506176,11.149568 Z" id="Fill-22" fill="#EB001B"></path>
                <polygon id="Clip-25" points="0 31.573888 137.33376 31.573888 137.33376 1.280128 0 1.280128"></polygon>
                <polygon id="Fill-24" fill="#098EEB" points="23.4752 11.090048 32.33024 11.090048 32.33024 2.543488 23.4752 2.543488"></polygon>
            </g>
        </g>
    </g>
</svg>