<svg xmlns="http://www.w3.org/2000/svg" xmlns:xlink="http://www.w3.org/1999/xlink" width="103" height="24" viewBox="0 0 103 24">
    <defs>
        <path id="a" d="M.02.3h8.195v16.02H.02z"/>
        <path id="c" d="M.064.32h5.348v5.103H.064z"/>
        <path id="e" d="M.448.32h5.338v5.096H.448z"/>
        <path id="g" d="M0 23.68h103V.96H0z"/>
    </defs>
    <g fill="none" fill-rule="evenodd">
        <path d="M-109-31h320v568h-320z"/>
        <g>
            <g transform="translate(31.68 7.36)">
                <mask id="b" fill="#fff">
                    <use xlink:href="#a"/>
                </mask>
                <path fill="#FEFEFE" d="M.02 15.236c.28-.759.563-1.516.84-2.275.18-.493.27-.548.796-.508.294.022.597.07.882.023.764-.127 1.26-.765 1.314-1.632.011-.177.01-.353.01-.53V1.172c0-.093-.003-.187.004-.279.032-.373.168-.57.54-.578A74.26 74.26 0 0 1 7.71.325c.349.009.484.193.49.544.01.594.007 1.187.007 1.78-.003 2.825.034 5.652-.025 8.478-.037 1.715-.657 3.214-2.111 4.259-.738.53-1.579.806-2.473.89-.915.085-1.832.065-2.721-.214-.33-.102-.674-.205-.855-.549v-.277z" mask="url(#b)"/>
            </g>
            <path fill="#FEFEFE" d="M103 8.246c-.034.283-.076.564-.1.848a163.03 163.03 0 0 0-.176 2.27c-.038.556-.216.68-.772.587-.664-.113-1.309-.037-1.892.334-.693.441-.939 1.123-.95 1.898-.02 1.25-.006 2.5-.009 3.752 0 .11-.008.222-.03.33-.064.33-.205.48-.538.484-1.066.013-2.131.014-3.197 0-.328-.004-.48-.165-.54-.488a1.819 1.819 0 0 1-.023-.332c-.002-3.15-.001-6.301-.001-9.45 0-.65.177-.83.816-.831.657-.001 1.316-.003 1.973 0 .595.003.798.204.824.787.016.351.05.702.075 1.063.029-.016.065-.022.072-.039.439-1.163 1.375-1.692 2.516-1.92.411-.083.844-.065 1.267-.081.36-.015.598.15.685.51v.278z"/>
            <g transform="translate(66.24 .64)">
                <mask id="d" fill="#fff">
                    <use xlink:href="#c"/>
                </mask>
                <path fill="#FEFEFE" d="M3.057.32c.487.106.962.223 1.37.54.825.642 1.106 1.5.939 2.484-.163.963-.766 1.624-1.692 1.91-1.097.338-2.134.2-2.954-.683C-.476 3.283-.026.949 1.97.437 2.144.392 2.322.36 2.5.32h.556z" mask="url(#d)"/>
            </g>
            <g transform="translate(34.56 .64)">
                <mask id="f" fill="#fff">
                    <use xlink:href="#e"/>
                </mask>
                <path fill="#FEFEFE" d="M3.426.32c.477.103.945.215 1.348.522.848.646 1.143 1.52.96 2.524-.182.987-.815 1.632-1.786 1.918-1.165.341-2.334.008-2.989-.882C.375 3.607.306 2.716.68 1.826 1.045.956 1.765.504 2.69.372c.062-.009.12-.035.18-.053h.556z" mask="url(#f)"/>
            </g>
            <path fill="#FEFEFE" d="M59.78 15.15c1.135.008 1.99-.794 1.987-1.931-.002-1.133-.73-1.934-1.95-1.967-1.104-.028-1.966.82-1.977 1.919-.014 1.123.818 1.97 1.94 1.98m-2.47 2.54c-.039.227-.065.417-.105.605-.061.293-.255.452-.546.455-.779.01-1.557.012-2.335 0-.348-.006-.521-.192-.55-.536a4.121 4.121 0 0 1-.011-.361l-.001-15.43c0-.775.128-.905.896-.905h2.586c.63 0 .814.181.814.805v6.044a4.013 4.013 0 0 1 1.882-.86c2.106-.353 4.24.577 5.264 2.452 1.266 2.316 1.234 4.658-.29 6.856-1.667 2.405-5.245 2.914-7.463.975-.034-.03-.074-.052-.14-.1M49.392 17.464c-1.083 1.298-2.466 1.603-4.008 1.475-1.074-.088-2.062-.4-2.907-1.09-.89-.726-1.37-1.685-1.536-2.802a9.648 9.648 0 0 1-.081-1.384c-.01-1.697-.004-3.392-.004-5.09 0-.073-.002-.147.001-.221.014-.518.182-.697.708-.703.973-.007 1.946-.005 2.919 0 .528.003.718.21.719.759.002 1.52-.003 3.04.004 4.56 0 .304.003.615.067.909.166.765.748 1.205 1.518 1.191.81-.014 1.375-.448 1.535-1.214.067-.324.103-.659.106-.99.01-1.493.004-2.985.005-4.477.001-.55.174-.733.73-.738.955-.006 1.91-.006 2.864 0 .534.004.714.186.715.725.003 3.217.003 6.432 0 9.649-.001.57-.18.733-.76.734-.603.001-1.205.002-1.807 0-.51-.002-.716-.209-.74-.724-.008-.176-.028-.35-.048-.569M86.575 11.856h3.345c-.03-.677-.629-1.146-1.52-1.208-.922-.063-1.687.442-1.825 1.208zm-.01 2.442c.316.766.88 1.15 1.607 1.28 1.084.193 2.134.088 3.108-.485.346-.203.589-.139.803.196.337.53.668 1.064.99 1.603.246.418.178.695-.232.965-.88.58-1.86.878-2.898 1.017a9.434 9.434 0 0 1-2.656 0c-2.638-.395-4.709-2.27-4.985-5.018-.16-1.601.177-3.074 1.199-4.345.818-1.02 1.898-1.628 3.17-1.898 1.388-.295 2.761-.247 4.078.314 1.731.738 2.735 2.09 3.117 3.906.118.557.143 1.136.17 1.707.025.548-.196.754-.75.757-.786.005-1.575.001-2.362.001h-4.359z"/>
            <path fill="#FEFEFE" d="M78.38 11.303c0 .88-.045 1.733.014 2.579.054.794.71 1.25 1.559 1.17a7.89 7.89 0 0 0 .978-.168c.38-.084.565-.035.731.307.342.705.675 1.415.988 2.134.185.423.116.595-.29.815-1.202.651-2.492.905-3.851.812-.906-.062-1.771-.277-2.54-.783-1.073-.705-1.64-1.732-1.83-2.975-.07-.456-.091-.922-.1-1.384-.015-.823-.004-1.647-.004-2.507h-3.542c-.138-.002-.28.005-.416-.016-.325-.05-.495-.232-.5-.564-.008-.823-.008-1.648 0-2.474.003-.356.153-.536.512-.566.46-.038 3.15-.027 3.611-.036.184-.003.369 0 .59 0v-.32c0-.918-.002-1.836 0-2.753.003-.566.165-.725.73-.726.89-.002 1.779-.004 2.669 0 .482.003.67.193.671.677.004.927.001 1.854.001 2.78v.342h.312c.872 0 1.742-.002 2.614 0 .61.001.797.189.798.794 0 .695.002 1.39 0 2.085-.002.588-.194.776-.788.776-.963.002-1.927.001-2.917.001"/>
            <path fill="#FEFEFE" d="M66.842 13.19V8.41c0-.587.169-.758.76-.76.946-.005 1.891-.005 2.836 0 .552.001.745.202.745.761v9.563c0 .598-.185.783-.775.784h-2.836c-.554 0-.728-.173-.73-.73-.001-1.612 0-3.224 0-4.837"/>
            <path fill="#EB001B" d="M17.63 8.362c0 1.48-.576 2.872-1.623 3.918a5.503 5.503 0 0 1-3.918 1.622A5.501 5.501 0 0 1 8.17 12.28a5.503 5.503 0 0 1-1.623-3.918H0c0 6.677 5.413 12.09 12.089 12.09s12.089-5.413 12.089-12.09H17.63z"/>
            <mask id="h" fill="#fff">
                <use xlink:href="#g"/>
            </mask>
            <path fill="#098EEB" d="M17.606 8.318h6.642v-6.41h-6.642z" mask="url(#h)"/>
        </g>
    </g>
</svg>
