<svg xmlns="http://www.w3.org/2000/svg" xmlns:xlink="http://www.w3.org/1999/xlink" width="64" height="64" viewBox="0 0 64 64">
    <defs>
        <path id="a" d="M32.85 0c-8.346 0-15.094 6.747-15.094 15.093 0 1.775.355 3.551.888 5.327L0 39.064v8.878h8.878v-5.327h5.327v-5.327h5.327l7.99-7.99a16.74 16.74 0 0 0 5.327.888c8.346 0 15.093-6.748 15.093-15.093C47.942 6.747 41.195 0 32.849 0zm4.438 15.98c-3.018 0-5.327-2.308-5.327-5.326 0-3.019 2.309-5.327 5.327-5.327 3.019 0 5.327 2.308 5.327 5.327 0 3.018-2.308 5.327-5.327 5.327z"/>
        <circle id="b" cx="12" cy="12" r="12"/>
    </defs>
    <g fill="none" fill-rule="evenodd">
        <use fill="#EB001B" fill-rule="nonzero" transform="translate(8 8)" xlink:href="#a"/>
        <g transform="translate(40 32)">
            <mask id="c" fill="#fff">
                <use xlink:href="#b"/>
            </mask>
            <use fill="#2682EE" fill-rule="nonzero" xlink:href="#b"/>
            <path fill="#FFF" fill-rule="nonzero" d="M8.57 8.69L6 11.285 11.663 17l1.13-1.141L19 9.593 16.43 7l-3.637 3.672-1.13 1.141z" mask="url(#c)"/>
        </g>
    </g>
</svg>
