<svg xmlns="http://www.w3.org/2000/svg" xmlns:xlink="http://www.w3.org/1999/xlink" width="64" height="64" viewBox="0 0 64 64">
    <defs>
        <circle id="a" cx="12" cy="12" r="12"/>
    </defs>
    <g fill="none" fill-rule="evenodd">
        <g fill-rule="nonzero">
            <path fill="#EB001B" d="M16 20h32c5.523 0 10 4.477 10 10s-4.477 10-10 10H16c-5.523 0-10-4.477-10-10s4.477-10 10-10z"/>
            <path fill="#000" d="M15.13 28.845V26h1.334v2.845l2.464-1.422.667 1.154L17.13 30l2.464 1.423-.667 1.154-2.464-1.422V34h-1.333v-2.845l-2.464 1.422L12 31.423 14.464 30 12 28.577l.667-1.154 2.464 1.422zM26.13 28.845V26h1.334v2.845l2.464-1.422.667 1.154L28.13 30l2.464 1.423-.667 1.154-2.464-1.422V34h-1.333v-2.845l-2.464 1.422L23 31.423 25.464 30 23 28.577l.667-1.154 2.464 1.422zM36.13 28.845V26h1.334v2.845l2.464-1.422.667 1.154L38.13 30l2.464 1.423-.667 1.154-2.464-1.422V34h-1.333v-2.845l-2.464 1.422L33 31.423 35.464 30 33 28.577l.667-1.154 2.464 1.422zM47.13 28.845V26h1.334v2.845l2.464-1.422.667 1.154L49.13 30l2.464 1.423-.667 1.154-2.464-1.422V34h-1.333v-2.845l-2.464 1.422L44 31.423 46.464 30 44 28.577l.667-1.154 2.464 1.422z"/>
        </g>
        <g transform="translate(40 32)">
            <mask id="b" fill="#fff">
                <use xlink:href="#a"/>
            </mask>
            <use fill="#2682EE" fill-rule="nonzero" xlink:href="#a"/>
            <path fill="#FFF" fill-rule="nonzero" d="M8.57 8.69L6 11.285 11.663 17l1.13-1.141L19 9.593 16.43 7l-3.637 3.672-1.13 1.141z" mask="url(#b)"/>
        </g>
    </g>
</svg>
