<svg xmlns="http://www.w3.org/2000/svg" width="42" height="41" viewBox="0 0 42 41">
    <path fill="#FFF" fill-opacity=".3" fill-rule="evenodd" stroke="#FFF" stroke-width="2" d="M22.027 1.639l5.293 10.724c.167.338.49.573.862.627l11.836 1.72a1.145 1.145 0 0 1 .635 1.953l-8.565 8.348c-.27.263-.393.642-.33 1.014l2.023 11.788c.16.935-.822 1.649-1.662 1.207l-10.586-5.565a1.145 1.145 0 0 0-1.066 0L9.88 39.021a1.145 1.145 0 0 1-1.662-1.208l2.022-11.788c.064-.371-.06-.75-.33-1.013l-8.564-8.348a1.145 1.145 0 0 1 .635-1.954l11.836-1.72c.372-.054.695-.288.862-.626l5.293-10.725a1.145 1.145 0 0 1 2.054 0z"/>
</svg>
