<svg xmlns="http://www.w3.org/2000/svg" width="128" height="128" viewBox="0 0 128 128">
    <g fill="none" fill-rule="evenodd">
        <path fill="#FFF" d="M99.715 116.014H28.682A4.682 4.682 0 0 1 24 111.332v-94.65a4.682 4.682 0 0 1 4.682-4.683h71.033a4.683 4.683 0 0 1 4.682 4.682v94.651a4.683 4.683 0 0 1-4.682 4.682"/>
        <path stroke="#3799EA" stroke-width="2" d="M99.715 116.014H28.682A4.682 4.682 0 0 1 24 111.332v-94.65a4.682 4.682 0 0 1 4.682-4.683h71.033a4.683 4.683 0 0 1 4.682 4.682v94.651a4.683 4.683 0 0 1-4.682 4.682z"/>
        <path fill="#D9EEF7" d="M82.39 46.198H46.602a2.269 2.269 0 0 1-2.287-2.287 2.269 2.269 0 0 1 2.287-2.287H82.39a2.268 2.268 0 0 1 2.287 2.287 2.268 2.268 0 0 1-2.287 2.287"/>
        <path stroke="#3799EA" stroke-width="2" d="M82.39 46.198H46.602a2.269 2.269 0 0 1-2.287-2.287 2.269 2.269 0 0 1 2.287-2.287H82.39a2.268 2.268 0 0 1 2.287 2.287 2.268 2.268 0 0 1-2.287 2.287z"/>
        <path fill="#D9EEF7" d="M48.838 46.198v14.26c0 7.872 6.39 14.195 14.194 14.195h2.96c7.87 0 14.194-6.391 14.194-14.194V46.198H48.838z"/>
        <path stroke="#3799EA" stroke-width="2" d="M48.838 46.198v14.26c0 7.872 6.39 14.195 14.194 14.195h2.96c7.87 0 14.194-6.391 14.194-14.194V46.198H48.838z"/>
        <path fill="#3799EA" d="M57.919 33.752v6.795h-4.574v-6.794a2.269 2.269 0 0 1 2.287-2.288 2.268 2.268 0 0 1 2.287 2.287M75.814 33.752v6.795H71.24v-6.794a2.268 2.268 0 0 1 2.287-2.288c1.21 0 2.286 1.01 2.286 2.287M58.862 105.837h1.602v-6.503h-1.602v6.503zm-1.821 0h1.044v-6.503h-1.044v6.503zm-4.784 0h3.202v-6.503h-3.202v6.503zm-2.625 0h1.044v-6.503h-1.044v6.503zm-2.379 0h1.601v-6.503h-1.601v6.503zm-4.652 0h3.201v-6.503h-3.201v6.503zm-3.133 0h1.601v-6.503h-1.601v6.503zm-4.802 0h3.202v-6.503h-3.202v6.503zM61.889 70.684l1.95-8.813h-5.112L67 49.628l-1.681 8.813h5.112z"/>
        <path stroke="#3799EA" stroke-width="3" d="M64.58 75.797v7.26c0 5.797 4.698 10.495 10.494 10.495 5.796 0 10.495 4.7 10.495 10.495v10.507"/>
    </g>
</svg>
