<svg xmlns="http://www.w3.org/2000/svg" xmlns:xlink="http://www.w3.org/1999/xlink" width="24" height="24" viewBox="0 0 24 24">
    <defs>
        <path id="a" d="M0 0h24v24H0z"/>
    </defs>
    <g fill="none" fill-rule="evenodd">
        <path fill="#F5F6FA" d="M-16-216h320v568H-16z"/>
        <path fill="#EB001B" d="M6.238 9.333c0 2.946 2.346 5.334 5.238 5.334 2.893 0 5.238-2.388 5.238-5.334C16.714 6.388 14.37 4 11.476 4 8.584 4 6.238 6.388 6.238 9.333z"/>
        <path fill="#0A94F1" d="M7.286 14.667c0-2.946 2.345-5.334 5.238-5.334 2.893 0 5.238 2.388 5.238 5.334 0 2.945-2.345 5.333-5.238 5.333-2.893 0-5.238-2.388-5.238-5.333z" style="mix-blend-mode:multiply"/>
        <path fill="#EB001B" fill-rule="nonzero" d="M2.643 8.362a5.114 5.114 0 0 0-.764 1.206 5.078 5.078 0 0 0-.462 2.589 5.028 5.028 0 0 0 1.157 2.797c.232.282.48.528.732.74.17.143.314.248.437.328l.564-.899c-.27-.176-.6-.453-.93-.853a3.961 3.961 0 0 1-.917-2.206 4.003 4.003 0 0 1 .368-2.043c.19-.41.397-.715.605-.959l-.79-.7z"/>
        <path fill="#EB001B" fill-rule="nonzero" d="M1.415 16.552l2.963.007.002-1.067-2.963-.007z"/>
        <path fill="#EB001B" fill-rule="nonzero" d="M3.863 13.008l-.008 3.017 1.048.002.007-3.017z"/>
        <path fill="#EB001B" d="M4.901 16.56l-1.047-.002.002-1.067 1.048.003z"/>
        <path fill="#098EEB" fill-rule="nonzero" d="M21.487 14.777c.266-.312.527-.694.763-1.206a5.073 5.073 0 0 0 .463-2.588 5.028 5.028 0 0 0-1.157-2.797 5.645 5.645 0 0 0-.732-.741 4.463 4.463 0 0 0-.438-.328l-.563.9c.27.175.6.452.929.853.512.624.844 1.358.917 2.206a3.998 3.998 0 0 1-.367 2.042c-.19.411-.398.715-.606.96l.79.699z"/>
        <path fill="#098EEB" fill-rule="nonzero" d="M22.715 6.588l-2.963-.008-.002 1.067 2.962.007z"/>
        <path fill="#098EEB" fill-rule="nonzero" d="M20.267 10.132l.008-3.017-1.048-.003-.008 3.017z"/>
        <path fill="#098EEB" d="M19.228 6.579l1.048.003-.003 1.066-1.048-.002z"/>
        <g fill="#FFF">
            <g>
                <use style="mix-blend-mode:color" xlink:href="#a"/>
                <use fill-opacity=".7" xlink:href="#a"/>
            </g>
        </g>
    </g>
</svg>
