<svg xmlns="http://www.w3.org/2000/svg" xmlns:xlink="http://www.w3.org/1999/xlink" width="48" height="48" viewBox="0 0 48 48">
    <defs>
        <path id="a" d="M2 0h22a2 2 0 0 1 2 2v16a2 2 0 0 1-2 2H2a2 2 0 0 1-2-2V2a2 2 0 0 1 2-2z"/>
    </defs>
    <g fill="none" fill-rule="evenodd" transform="translate(11 14)">
        <mask id="b" fill="#fff">
            <use xlink:href="#a"/>
        </mask>
        <use fill="#2682EE" xlink:href="#a"/>
        <path fill="#090019" d="M0 4h26v5H0z" mask="url(#b)"/>
        <circle cx="17" cy="15" r="3" fill="#EB001B" fill-rule="nonzero" mask="url(#b)"/>
        <circle cx="21" cy="15" r="3" fill="#FFF" fill-rule="nonzero" mask="url(#b)"/>
        <path fill="#090019" fill-rule="nonzero" d="M19 12.764c.614.55 1 1.348 1 2.236 0 .888-.386 1.687-1 2.236-.614-.55-1-1.348-1-2.236 0-.888.386-1.687 1-2.236z" mask="url(#b)"/>
    </g>
</svg>
