<svg xmlns="http://www.w3.org/2000/svg" width="32" height="32" viewBox="0 0 32 32">
    <g fill="none" fill-rule="evenodd">
        <path fill="#2B2B2C" d="M8.25 8.25h2.5v2.5h-2.5zM23.5 26v2h-2v-2h2zm0-2.5h-2v-2H19V28h-2V17h6.5v2.5H26V17h2v6.5h-4.5zM26 26h2v2h-2v-2z"/>
        <path stroke="#2B2B2C" stroke-width="2.5" d="M5.25 5.25v8.5h8.5v-8.5h-8.5zm0 13v8.5h8.5v-8.5h-8.5zm13-13v8.5h8.5v-8.5h-8.5z"/>
        <path fill="#2B2B2C" d="M8.25 21.25h2.5v2.5h-2.5zM21.25 8.25h2.5v2.5h-2.5z"/>
    </g>
</svg>
