<svg xmlns="http://www.w3.org/2000/svg" width="24" height="24" viewBox="0 0 24 24">
    <g fill="none" fill-rule="evenodd">
        <path fill="#F5F6FA" d="M0-198h320v1265H0z"/>
        <g>
            <circle cx="12" cy="12" r="12" fill="#0099DE" fill-rule="nonzero"/>
            <path fill="#FFF" d="M8 18.169V6h3.943c1.494 0 2.468.06 2.922.183.697.182 1.28.58 1.751 1.19.47.612.706 1.402.706 2.37 0 .748-.136 1.376-.407 1.885-.271.509-.616.909-1.033 1.2-.418.29-.843.482-1.275.576-.586.117-1.436.175-2.548.175h-1.602v4.59H8zm2.457-10.11v3.453h1.345c.968 0 1.616-.064 1.942-.191.327-.127.583-.327.768-.598.185-.271.278-.586.278-.946 0-.443-.13-.808-.39-1.096a1.699 1.699 0 0 0-.988-.54c-.293-.055-.883-.082-1.768-.082h-1.187z"/>
        </g>
    </g>
</svg>
