<svg xmlns="http://www.w3.org/2000/svg" width="64" height="64" viewBox="0 0 64 64">
    <g fill="none" fill-rule="evenodd">
        <path fill="#EB001B" d="M33 8v48C19.747 56 9 45.255 9 32S19.747 8 33 8z"/>
        <path fill="#0A94F1" d="M15.857 32c0-9.468 7.677-17.143 17.143-17.143 9.468 0 17.143 7.675 17.143 17.143S42.468 49.143 33 49.143c-9.466 0-17.143-7.675-17.143-17.143z" style="mix-blend-mode:multiply"/>
        <path fill="#FFF" d="M26.143 30.286h15.429v3.429H26.143z"/>
        <g fill="#FFF">
            <path d="M23.009 31.853l7.273-7.273 2.425 2.425-7.274 7.273z"/>
            <path d="M25.433 29.722l7.273 7.274-2.424 2.424-7.274-7.273z"/>
        </g>
    </g>
</svg>
