<svg xmlns="http://www.w3.org/2000/svg" width="24" height="24" viewBox="0 0 24 24">
    <g fill="none" fill-rule="evenodd">
        <circle cx="12" cy="12" r="12" fill="#15A735" fill-rule="nonzero"/>
        <path fill="#FFF" d="M11.365 18.5a.373.373 0 0 1-.375-.375v-1.05c-.75-.09-1.387-.277-1.912-.563-.526-.285-.92-.637-1.185-1.057a2.681 2.681 0 0 1-.428-1.335c0-.09.032-.165.098-.225a.331.331 0 0 1 .232-.09H9.79c.13 0 .23.02.3.06.07.04.15.11.24.21.31.55.88.825 1.71.825.54 0 .957-.082 1.253-.248.295-.165.442-.392.442-.682a.656.656 0 0 0-.232-.518c-.156-.135-.395-.254-.72-.36a14.583 14.583 0 0 0-1.433-.352c-1.21-.24-2.115-.605-2.715-1.095-.6-.49-.9-1.19-.9-2.1 0-.81.29-1.497.87-2.063.58-.565 1.375-.917 2.385-1.057v-1.05A.373.373 0 0 1 11.365 5h1.305c.11 0 .2.035.27.105.07.07.105.16.105.27v1.08c.66.12 1.23.332 1.71.638.48.305.847.654 1.102 1.05.256.395.393.777.413 1.147 0 .09-.03.167-.09.233a.293.293 0 0 1-.225.097h-2.1c-.23 0-.4-.09-.51-.27-.06-.21-.217-.387-.473-.532-.255-.146-.562-.218-.922-.218-.42 0-.745.075-.975.225-.23.15-.345.37-.345.66 0 .29.15.517.45.683.3.165.855.332 1.665.502.94.17 1.69.382 2.25.637.56.256.97.585 1.23.99.26.406.39.918.39 1.538 0 .88-.322 1.605-.967 2.175-.646.57-1.513.925-2.603 1.065v1.05c0 .11-.035.2-.105.27a.365.365 0 0 1-.27.105h-1.305z"/>
    </g>
</svg>
