<svg xmlns="http://www.w3.org/2000/svg" width="24" height="24" viewBox="0 0 24 24">
    <g fill="none" fill-rule="evenodd">
        <path fill="#F5F6FA" d="M-200-198h320v1740h-320z"/>
        <g>
            <circle cx="12" cy="12" r="12" fill="#D9251D" fill-rule="nonzero"/>
            <path fill="#FFF" d="M6.058 12.529v2.295c0 .447.027.73.082.845a.601.601 0 0 0 .293.278c.14.069.398.104.772.104v.225H3v-.225c.382 0 .642-.036.778-.107a.623.623 0 0 0 .287-.278c.055-.114.082-.395.082-.842V9.453c0-.448-.027-.73-.082-.846a.603.603 0 0 0-.29-.277c-.138-.07-.397-.104-.775-.104V8h3.607c1.188 0 2.04.212 2.558.635.516.423.775.952.775 1.587 0 .537-.167.997-.5 1.38-.334.382-.794.642-1.38.78-.395.098-1.062.147-2.002.147zm0-4.053v3.577c.134.008.236.012.305.012.496 0 .879-.148 1.147-.443.27-.295.403-.751.403-1.37 0-.614-.134-1.064-.403-1.349-.268-.285-.669-.427-1.202-.427h-.25zm9.77 4.98L18.076 8h3.369v.226h-.269c-.244 0-.44.043-.586.128a.596.596 0 0 0-.244.287c-.044.098-.067.352-.067.763v5.456c0 .424.023.688.067.794a.609.609 0 0 0 .275.278c.138.079.323.119.555.119h.269v.225h-4.321v-.225h.268c.244 0 .44-.043.586-.129a.594.594 0 0 0 .244-.293c.045-.097.067-.354.067-.769V8.726l-3.173 7.55h-.147l-3.223-7.495v5.83c0 .406.01.656.031.75a.87.87 0 0 0 .345.497c.177.128.455.193.833.193v.225h-2.832v-.225h.085c.183.004.354-.026.513-.089a.825.825 0 0 0 .36-.253c.082-.106.145-.255.19-.446a7.54 7.54 0 0 0 .012-.622V9.404c0-.42-.023-.68-.068-.784a.613.613 0 0 0-.274-.275c-.139-.08-.324-.12-.556-.12h-.262V8h3.381l2.326 5.457z"/>
        </g>
    </g>
</svg>
