<svg xmlns="http://www.w3.org/2000/svg" width="60" height="60" viewBox="0 0 60 60">
    <g fill="none" fill-rule="evenodd">
        <path fill="#FFF" d="M-130-206h320v568h-320z"/>
        <path fill="#0A94F1" fill-rule="nonzero" d="M58.532 42.561c.8 0 1.468.668 1.468 1.47v6.147C60 55.59 55.595 60 50.19 60h-6.675c-.8 0-1.468-.668-1.468-1.47 0-.802.667-1.47 1.468-1.47h6.674a6.868 6.868 0 0 0 6.874-6.882v-6.147c0-.802.668-1.47 1.469-1.47zM50.189 0C55.595 0 60 4.41 60 9.822v7.149c0 .802-.667 1.47-1.468 1.47-.801 0-1.469-.668-1.469-1.47v-7.15A6.868 6.868 0 0 0 50.19 2.94h-6.674c-.8 0-1.468-.668-1.468-1.47 0-.802.667-1.47 1.468-1.47h6.674zm-7.542 29.265a1.866 1.866 0 0 1-1.868-1.87V22.65c0-1.002.8-1.87 1.868-1.87s1.87.801 1.87 1.87v4.811c-.068 1.002-.869 1.804-1.87 1.804zm-3.47 12.962c.6-.601 1.535-.601 2.069 0 .6.602.6 1.537 0 2.071a15.243 15.243 0 0 1-10.946 4.61h-.534c-4.07 0-7.942-1.603-10.945-4.61-.6-.6-.6-1.536 0-2.07.6-.602 1.535-.602 2.069 0 2.403 2.405 5.54 3.74 8.876 3.74h.534c3.27 0 6.474-1.335 8.877-3.74zm-12.814-4.076c-.801 0-1.469-.668-1.469-1.47 0-.801.668-1.47 1.469-1.47h.333a2.465 2.465 0 0 0 2.47-2.472V22.65c0-.801.667-1.47 1.468-1.47.8 0 1.468.669 1.468 1.47v10.156c0 2.94-2.402 5.345-5.406 5.345h-.333zM16.485 20.78c1.001 0 1.869.801 1.869 1.87v4.811c0 1.002-.801 1.804-1.869 1.804a1.866 1.866 0 0 1-1.869-1.87V22.65c0-1.002.801-1.87 1.869-1.87zM1.535 18.44c-.8 0-1.468-.668-1.468-1.47v-7.15C.067 4.41 4.472 0 9.877 0h6.675c.8 0 1.468.668 1.468 1.47 0 .802-.667 1.47-1.468 1.47H9.878a6.868 6.868 0 0 0-6.875 6.882v7.149c0 .802-.667 1.47-1.468 1.47zm14.95 38.62c.8 0 1.468.667 1.468 1.47 0 .8-.6 1.469-1.468 1.469H9.811C4.405 60 0 55.59 0 50.178v-6.147c0-.802.667-1.47 1.468-1.47.801 0 1.469.668 1.469 1.47v6.147A6.868 6.868 0 0 0 9.81 57.06h6.674z"/>
    </g>
</svg>
