<?xml version="1.0" encoding="UTF-8"?>
<svg width="64px" height="64px" viewBox="0 0 64 64" version="1.1" xmlns="http://www.w3.org/2000/svg" xmlns:xlink="http://www.w3.org/1999/xlink">
    <!-- Generator: Sketch 51.2 (57519) - http://www.bohemiancoding.com/sketch -->
    <title>icons/icon-sell</title>
    <desc>Created with Sketch.</desc>
    <defs>
        <rect id="path-1" x="8" y="8" width="48" height="24"></rect>
    </defs>
    <g id="icons/icon-sell" stroke="none" stroke-width="1" fill="none" fill-rule="evenodd">
        <rect id="Rectangle-2" x="8" y="32" width="48" height="24"></rect>
        <path d="M32.0035996,48.9994414 C22.678917,48.9246217 15.0035996,41.3426321 15.0035996,32 L32.0035996,32 L32.0035996,48.9994414 Z" id="Combined-Shape" fill="#EB001B" style="mix-blend-mode: multiply;"></path>
        <path d="M48.9988727,32 L14.8571429,32 C14.8571429,22.6109 22.4697429,15 31.8571429,15 C41.2462429,15 48.9988727,22.6109 48.9988727,32 Z" id="Combined-Shape-Copy-3" fill="#098CE4" style="mix-blend-mode: multiply;"></path>
        <path d="M32,56 C32,42.7448 42.7472,32 56,32 L56,56 L32,56 Z" id="Combined-Shape" fill="#098CE4" style="mix-blend-mode: multiply;" transform="translate(44.000000, 44.000000) rotate(-180.000000) translate(-44.000000, -44.000000) "></path>
        <path d="M32,49 C32,39.6109 39.6172933,32 49.0046933,32 L49.0046933,49 L32,49 Z" id="Combined-Shape-Copy-2" fill="#000016" transform="translate(40.502347, 40.500000) rotate(-180.000000) translate(-40.502347, -40.500000) "></path>
        <g id="Group-8" transform="translate(31.285714, 34.071429) rotate(-180.000000) translate(-31.285714, -34.071429) translate(21.285714, 28.571429)" fill="#FFFFFF">
            <rect id="Rectangle-10" x="4.14285714" y="5.85714286" width="15.4285714" height="3.42857143"></rect>
            <polygon id="Rectangle-10" transform="translate(5.555544, 5.159354) rotate(-45.000000) translate(-5.555544, -5.159354) " points="0.412686584 3.44506822 10.6984009 3.44506822 10.6984009 6.87363965 1.4788781 6.82915097 1.07855562 6.36665725 0.441186923 5.7914598"></polygon>
        </g>
        <mask id="mask-2" fill="white">
            <use xlink:href="#path-1"></use>
        </mask>
        <g id="Rectangle"></g>
        <path d="M8,32 C8,18.7448 18.7472,8 32,8 L32,32 L8,32 Z" id="Combined-Shape" fill="#EB001B" mask="url(#mask-2)"></path>
        <path d="M15,32 C15,22.6109 22.6126,15 32,15 L32,32 L15,32 Z" id="Combined-Shape-Copy" fill="#080018" mask="url(#mask-2)"></path>
        <path d="M32,15 L32,49.1428571 C22.5731571,49.1428571 15.0044827,41.473675 15.0044827,32.045125 C15.0044827,22.616575 22.5731571,15 32,15 Z" id="Combined-Shape" fill="#000016" mask="url(#mask-2)"></path>
        <rect id="Rectangle-10" fill="#FFFFFF" mask="url(#mask-2)" x="25.1428571" y="30.2857143" width="15.4285714" height="3.42857143"></rect>
        <g id="Group" mask="url(#mask-2)" fill="#FFFFFF">
            <g transform="translate(21.714286, 24.285714)" id="Rectangle-10">
                <polygon transform="translate(4.857251, 5.289920) rotate(-45.000000) translate(-4.857251, -5.289920) " points="-0.285606624 3.57563389 10.0001077 3.57563389 10.0001077 7.00420532 1.0794056 7.00420532 0.312248213 6.45995759 -0.285606624 5.70843932"></polygon>
                <rect transform="translate(5.142857, 10.285714) rotate(45.000000) translate(-5.142857, -10.285714) " x="0" y="8.57142857" width="10.2857143" height="3.42857143"></rect>
            </g>
        </g>
    </g>
</svg>