<?xml version="1.0" encoding="UTF-8"?>
<svg width="64px" height="64px" viewBox="0 0 64 64" version="1.1" xmlns="http://www.w3.org/2000/svg" xmlns:xlink="http://www.w3.org/1999/xlink">
    <!-- Generator: Sketch 51.2 (57519) - http://www.bohemiancoding.com/sketch -->
    <title>icons/exchange</title>
    <desc>Created with Sketch.</desc>
    <defs></defs>
    <g id="icons/exchange" stroke="none" stroke-width="1" fill="none" fill-rule="evenodd">
        <g id="Group" transform="translate(4.000000, 12.000000)">
            <g id="Group-2">
                <g id="Group-3" transform="translate(15.428571, 3.000000)"></g>
                <g id="Group-23" transform="translate(17.714286, 14.428571)">
                    <g id="Group-6"></g>
                </g>
                <g id="Group-4" transform="translate(12.000000, 0.000000)">
                    <path d="M0,12 C0,18.6276 5.3736,24 12,24 C18.6276,24 24,18.6276 24,12 C24,5.3736 18.6276,0 12,0 C5.3736,0 0,5.3736 0,12 Z" id="Clip-2" fill="#EB001B"></path>
                    <path d="M8,28 C8,21.3724 13.3736,16 20,16 C26.6276,16 32,21.3724 32,28 C32,34.6276 26.6276,40 20,40 C13.3736,40 8,34.6276 8,28 Z" id="Clip-5" fill="#0A94F1" style="mix-blend-mode: multiply;"></path>
                </g>
                <path d="M3.58373758,11.3479761 C3.00274788,12.0165754 2.4341649,12.8341532 1.91887121,13.9317899 C1.1254694,15.62183 0.734817358,17.4830875 0.909012598,19.4792401 C1.11259018,21.7977644 2.0332625,23.7968324 3.43381017,25.4724044 C3.93944959,26.0773358 4.48015971,26.6052878 5.03088937,27.0595664 C5.40037309,27.3643412 5.71534217,27.5895715 5.98453318,27.7614396 L7.21455253,25.8349033 C6.62471068,25.4583119 5.90450217,24.8642359 5.18756126,24.0065099 C4.06936378,22.6687329 3.3455839,21.0971801 3.18601977,19.2799219 C3.04925902,17.7127398 3.356785,16.2475355 3.98792879,14.9031243 C4.4017914,14.0215479 4.85539454,13.369302 5.30906242,12.8472239 L3.58373758,11.3479761 Z" id="Stroke-7" fill="#EB001B" fill-rule="nonzero"></path>
                <path d="M5.58251532,27.9939013 L0,27.9800614 L0.005933558,25.5782703 L5.58860359,25.5921106 L5.60241874,20 L8,20.005944 L7.98321688,26.7994308 L7.98010369,28 L5.58251509,27.9939955 Z" id="Combined-Shape" fill="#EB001B" fill-rule="nonzero"></path>
                <path d="M52.6985481,25.4134635 C53.2801324,24.74418 53.8483944,23.9273685 54.3637765,22.8299342 C55.1574537,21.1399094 55.5480263,19.278819 55.3732426,17.282993 C55.1697054,14.9643655 54.2490519,12.9649784 52.8485173,11.289228 C52.3428738,10.6842216 51.8021571,10.156219 51.2514189,9.70190964 C50.8819285,9.39711346 50.5669584,9.17187761 50.2977525,9 L49.0677332,10.9265363 C49.6575714,11.3031254 50.3777516,11.897209 51.0946827,12.7550226 C52.2128935,14.0929706 52.9366919,15.6648464 53.0962638,17.4826364 C53.2334792,19.0494761 52.9260945,20.5141736 52.294852,21.8583164 C51.8809329,22.7396994 51.4275709,23.3913554 50.9732233,23.9142157 L52.6985481,25.4134635 Z" id="Stroke-15" fill="#098EEB" fill-rule="nonzero"></path>
                <path d="M50.4174838,8.00621569 L56,8.02005666 L55.9940654,10.4216037 L50.412384,10.4077648 L50.3975802,16 L48,15.9936321 L48.0148034,10.4015567 L48.0198958,8 L50.4174844,8.00600389 Z" id="Combined-Shape" fill="#098EEB" fill-rule="nonzero"></path>
            </g>
        </g>
    </g>
</svg>