<svg xmlns="http://www.w3.org/2000/svg" width="64" height="64" viewBox="0 0 64 64">
    <g fill="none" fill-rule="evenodd">
        <path fill="#EB001B" d="M13 32c0-9.468 7.677-17.143 17.143-17.143 9.468 0 17.143 7.675 17.143 17.143S39.61 49.143 30.143 49.143C20.677 49.143 13 41.468 13 32z" style="mix-blend-mode:multiply"/>
        <path fill="#098CE4" d="M30.143 56V8c13.253 0 24 10.745 24 24s-10.747 24-24 24z" style="mix-blend-mode:multiply"/>
        <path fill="#FFF" d="M32.176 30.286l-3.073-3.073 2.424-2.425 7.273 7.273-.061.062.061.061-7.273 7.273-2.424-2.424 3.318-3.319H19.857v-3.428h12.319z"/>
    </g>
</svg>
