<svg xmlns="http://www.w3.org/2000/svg" width="60" height="60" viewBox="0 0 60 60">
    <g fill="none" fill-rule="evenodd">
        <path fill="#FFF" d="M-130-206h320v568h-320z"/>
        <path fill="#0A94F1" fill-rule="nonzero" d="M2.33 37.929c-.712 0-1.424-.518-1.553-1.23A28.874 28.874 0 0 1 0 30.032c0-6.407 2.006-12.492 5.76-17.67.518-.711 1.554-.906 2.266-.323.712.518.906 1.553.324 2.265C4.984 18.9 3.236 24.337 3.236 30.097c0 2.007.194 4.013.648 5.955.194.841-.324 1.747-1.23 1.942-.065-.065-.194-.065-.324-.065zm7.25-25.955c-.389 0-.777-.13-1.101-.453a1.623 1.623 0 0 1-.065-2.265 24.608 24.608 0 0 1 3.366-2.978c.712-.517 1.748-.388 2.265.324.518.712.389 1.748-.323 2.265-1.036.842-2.071 1.683-2.978 2.654-.323.324-.776.453-1.165.453zm48.867 19.677a1.602 1.602 0 0 1-1.618-1.619c0-14.757-12.04-26.796-26.797-26.796-4.336 0-8.673 1.1-12.556 3.107a1.677 1.677 0 0 1-2.2-.647 1.677 1.677 0 0 1 .646-2.2A30.097 30.097 0 0 1 29.968 0C46.538 0 60 13.463 60 30.032c.065.907-.712 1.619-1.553 1.619zm-7.314 18.964h-.26c-.905-.13-1.488-.97-1.294-1.877 2.007-11.133 1.619-19.03 1.554-19.87-.324-5.89-3.172-11.392-7.702-15.082-.712-.582-.777-1.553-.26-2.265.518-.712 1.554-.777 2.266-.259 5.243 4.272 8.479 10.68 8.932 17.411.065.906.453 9.191-1.618 20.648-.194.776-.841 1.294-1.618 1.294zM5.76 46.278c-.13 0-.26 0-.389-.064-.841-.194-1.359-1.1-1.165-1.942 1.812-7.25 1.554-12.75 1.554-12.816-.777-13.398 9.514-24.919 22.912-25.695 3.56-.195 7.12.388 10.421 1.682.841.324 1.23 1.295.906 2.072-.324.841-1.294 1.23-2.071.906-2.848-1.165-5.89-1.618-8.997-1.489-11.586.647-20.518 10.68-19.806 22.265 0 .065.324 6.02-1.683 13.787-.323.841-.97 1.294-1.682 1.294zm38.382 10.033c-.13 0-.26 0-.389-.065-.841-.194-1.424-1.1-1.165-1.942a85.073 85.073 0 0 0 2.136-11.456c.13-.906.906-1.489 1.812-1.424.906.13 1.489.906 1.424 1.812a106.121 106.121 0 0 1-2.265 11.845c-.194.712-.842 1.23-1.553 1.23zm2.847-19.094c-.97-.065-1.618-.777-1.618-1.683.194-3.754.065-6.084.065-6.343-.518-8.479-7.767-14.951-16.31-14.498-1.619.064-3.237.453-4.726 1.035-.841.324-1.747-.065-2.07-.906-.324-.841.064-1.748.905-2.071 1.813-.712 3.754-1.165 5.76-1.23 10.227-.712 19.095 7.185 19.677 17.411 0 .453.13 2.848-.064 6.732-.065.906-.777 1.553-1.619 1.553zM9.968 51.78c-.195 0-.324 0-.518-.065-.842-.259-1.295-1.165-1.036-2.07 3.366-10.098 2.978-18.448 2.978-18.512-.324-5.437 1.747-10.745 5.695-14.563a1.564 1.564 0 0 1 2.266.064c.582.648.582 1.683-.065 2.266a15.656 15.656 0 0 0-4.66 12.039c0 .064.453 8.932-3.107 19.74-.194.648-.841 1.101-1.553 1.101zm27.508 7.25c-.13 0-.324 0-.518-.065-.841-.26-1.294-1.165-1.036-2.007 2.913-9.256 4.337-19.288 3.82-27.443-.13-1.683-.648-3.366-1.554-4.725-.518-.777-.26-1.748.453-2.266.777-.517 1.747-.259 2.265.453a12.941 12.941 0 0 1 2.071 6.343c.518 8.544-.97 18.965-4.012 28.609-.195.647-.842 1.1-1.49 1.1zm-22.783-3.496c-.195 0-.389 0-.583-.13-.841-.323-1.294-1.23-.97-2.07 4.336-11.91 3.883-22.201 3.883-22.654-.324-7.12 5.178-13.204 12.297-13.593a12.46 12.46 0 0 1 5.761.971c.841.324 1.23 1.295.841 2.136-.323.842-1.294 1.23-2.136.842a9.927 9.927 0 0 0-4.336-.777c-5.372.259-9.45 4.854-9.191 10.227.065 1.165.388 11.65-4.078 23.883-.194.777-.776 1.165-1.488 1.165zM31.003 60c-.194 0-.323 0-.517-.065-.842-.258-1.295-1.23-1.036-2.07 5.243-15.276 4.66-27.962 4.66-28.091-.13-2.266-2.006-3.949-4.272-3.82-2.2.13-3.948 2.072-3.819 4.273 0 .259.065 1.812 0 4.142-.064.906-.776 1.553-1.682 1.553-.907-.064-1.618-.776-1.554-1.682.065-2.201 0-3.625 0-3.884-.259-3.948 2.848-7.379 6.861-7.573 4.078-.194 7.443 2.783 7.702 6.861 0 .13.712 13.333-4.79 29.32-.258.648-.905 1.036-1.553 1.036zm-11.132-1.877c-.195 0-.389-.065-.583-.13-.841-.323-1.23-1.23-.97-2.07 1.876-4.984 3.17-10.227 3.883-15.664.13-.906.906-1.489 1.812-1.424.906.13 1.489.906 1.424 1.812-.712 5.696-2.136 11.198-4.078 16.376-.259.712-.841 1.1-1.488 1.1zm5.372 1.489c-.194 0-.389 0-.583-.13-.841-.323-1.294-1.23-.97-2.07.452-1.166.84-2.396 1.23-3.625.258-.842 1.164-1.36 2.006-1.1.841.258 1.359 1.164 1.1 2.006-.388 1.294-.841 2.524-1.295 3.754-.194.776-.841 1.165-1.488 1.165zm2.848-9.644c-.13 0-.26 0-.389-.065a1.637 1.637 0 0 1-1.23-1.942c2.33-10.162 1.942-17.8 1.878-17.864a1.566 1.566 0 0 1 1.553-1.683 1.566 1.566 0 0 1 1.683 1.554c0 .323.453 8.09-2.007 18.77-.064.712-.776 1.23-1.488 1.23z"/>
    </g>
</svg>
