<?xml version="1.0" encoding="UTF-8"?>
<svg width="28px" height="16px" viewBox="0 0 28 16" version="1.1" xmlns="http://www.w3.org/2000/svg" xmlns:xlink="http://www.w3.org/1999/xlink">
    <!-- Generator: Sketch 51.2 (57519) - http://www.bohemiancoding.com/sketch -->
    <title>logotypes/visaOnWhite</title>
    <desc>Created with Sketch.</desc>
    <defs></defs>
    <g id="logotypes/visaOnWhite" stroke="none" stroke-width="1" fill="none" fill-rule="evenodd">
        <g id="Page-1-Copy" transform="translate(3.000000, 5.000000)" fill="#1A1F71">
            <path d="M10.8514616,0.125074547 L9.3893402,6.91407729 L7.62134974,6.91407729 L9.08347113,0.125074547 L10.8514616,0.125074547 Z M18.3066001,4.51432908 L19.2443745,1.97116299 L19.7855274,4.51432908 L18.3050875,4.51432908 L18.3066001,4.51432908 Z M20.2913878,6.90907434 L21.9333333,6.90907434 L20.5081851,0.120071597 L18.9956458,0.120071597 C18.6632232,0.115902472 18.3622279,0.314519575 18.2376955,0.620366567 L15.5655426,6.90740669 L17.4227729,6.90740669 L17.7839337,5.88680495 L20.0577845,5.88680495 L20.2913878,6.90907434 Z M15.6747816,4.69276762 C15.6747816,2.90171163 13.1841334,2.79498204 13.20262,2.00618363 C13.20262,1.75603615 13.438072,1.50588866 13.9605703,1.43251207 C14.559872,1.37647903 15.1633752,1.48070715 15.7083935,1.7343567 L16.0109014,0.305180736 C15.4811765,0.103061568 14.9181758,-0.000332725626 14.3504693,8.04353543e-07 C12.5992849,8.04353543e-07 11.3726154,0.930549448 11.3539608,2.23965462 C11.3354742,3.22523571 12.237956,3.76221898 12.9068345,4.08407541 C13.575713,4.40593184 13.8278029,4.63940282 13.8278029,4.91790036 C13.8278029,5.36649818 13.2681634,5.58496032 12.762303,5.58496032 C12.1270364,5.60230388 11.4983243,5.45388304 10.9390208,5.15470664 L10.6144971,6.6405827 C11.2398481,6.88956283 11.9088947,7.01163481 12.5824789,6.99912743 C14.4412217,7.01747158 15.6514212,6.10359944 15.6697398,4.68776467 L15.6747816,4.69276762 Z M8.32552085,0.125074547 L5.45522531,6.91407729 L3.57446664,6.91407729 L2.16612443,1.48754451 C2.07537207,1.15401453 1.9980645,1.03894669 1.75118446,0.89719645 C1.1949061,0.631373056 0.606192166,0.438592728 0,0.323524885 L0.045208121,0.125074547 L3.06037132,0.125074547 C3.46741246,0.127242492 3.81227144,0.424084174 3.87193271,0.823819855 L4.6113964,4.74613242 L6.46005563,0.125074547 L8.33728504,0.125074547 L8.32552085,0.125074547 Z" id="Fill-1"></path>
        </g>
    </g>
</svg>