<?xml version="1.0" encoding="UTF-8"?>
<svg width="28px" height="16px" viewBox="0 0 28 16" version="1.1" xmlns="http://www.w3.org/2000/svg" xmlns:xlink="http://www.w3.org/1999/xlink">
    <!-- Generator: Sketch 51.2 (57519) - http://www.bohemiancoding.com/sketch -->
    <title>logotypes/masterCardOnWhite</title>
    <desc>Created with Sketch.</desc>
    <defs></defs>
    <g id="logotypes/masterCardOnWhite" stroke="none" stroke-width="1" fill="none" fill-rule="evenodd">
        <g id="Page-1-Copy-2" transform="translate(5.000000, 3.000000)">
            <g id="Group-2">
                <polygon id="Fill-3" fill="#FF5F00" points="6.32258065 9.6849997 11.7419355 9.6849997 11.7419355 1.15499997 6.32258065 1.15499997"></polygon>
                <path d="M6.90802912,5.41951562 C6.90849428,3.75896117 7.69104782,2.18978163 9.03225806,1.15936778 C6.60877643,-0.690560018 3.09961224,-0.282910536 1.19416338,2.06995556 C-0.711285491,4.42267113 -0.291401405,7.82973565 2.13208023,9.67966345 C4.15676501,11.2250584 7.00772833,11.2250584 9.03225806,9.67966345 C7.69104782,8.6492496 6.90849428,7.08007006 6.90802912,5.41951562" id="Fill-5" fill="#EB001B"></path>
                <path d="M18.0645161,5.41948144 C18.0611019,8.41572806 15.5569006,10.8420217 12.4713446,10.8387063 C11.2245206,10.83735 10.0138566,10.4310588 9.03225806,9.68433303 C11.4579315,7.82151216 11.8691941,4.40224652 9.95100321,2.04678256 C9.68143221,1.71569143 9.37321805,1.41639831 9.03225806,1.15462986 C11.4613457,-0.693120861 14.9730629,-0.278842521 16.8757344,2.07993688 C17.6447179,3.03312367 18.0631194,4.20859513 18.0645161,5.41948144" id="Fill-7" fill="#F79E1B"></path>
            </g>
        </g>
    </g>
</svg>