<svg xmlns="http://www.w3.org/2000/svg" width="64" height="64" viewBox="0 0 64 64">
    <g fill="none" fill-rule="evenodd">
        <circle cx="20" cy="32" r="20" fill="#EB001B"/>
        <circle cx="44" cy="32" r="20" fill="#2682EE"/>
        <path fill="#090019" d="M32 15.999c4.858 3.648 8 9.458 8 16.001 0 6.543-3.142 12.353-8 16.001-4.858-3.648-8-9.458-8-16.001 0-6.543 3.142-12.353 8-16.001z"/>
        <path fill="#FFF" d="M20.614 35.745c-.276.321-.735.49-1.36.5h-2.698v-3.356h2.692c.632.01 1.093.174 1.367.484.29.332.43.723.43 1.194 0 .46-.14.844-.431 1.178zm-4.058-8.358h2.503c.625.01 1.082.16 1.353.438.292.314.433.69.433 1.147 0 .454-.14.819-.437 1.124-.279.316-.718.468-1.343.468h-2.51v-3.177zm6.458 5.26a2.782 2.782 0 0 0-1.178-1.034c.173-.11.329-.226.467-.347.276-.23.492-.478.647-.747.286-.53.424-1.095.41-1.672 0-1.123-.349-2.042-1.038-2.733-.684-.685-1.705-1.039-3.038-1.052h-2.76V23h-2.466v2.06H13v2.307h1.041v9H13v2.307h1.041v.004h.017V40.6h2.466v-1.922h3.193c1.083 0 2-.376 2.72-1.111.733-.708 1.11-1.676 1.123-2.88a4.02 4.02 0 0 0-.546-2.04zM43.868 25l-1.383 7.588-1.084.648L41 34.948l1.182-.704-.788 4.327h.04l-.01.029h10.037v-2.43h-6.947l.68-3.72 2.906-1.734.423-1.743-3.027 1.811L46.551 25z"/>
    </g>
</svg>
