<svg xmlns="http://www.w3.org/2000/svg" xmlns:xlink="http://www.w3.org/1999/xlink" width="56" height="32" viewBox="0 0 56 32">
    <defs>
        <path id="a" d="M30.4 3.257a1.048 1.048 0 0 0-.004.108c.012.523.424.937.92.924.482 0 .881-.395.913-.903.034-.533-.348-.994-.854-1.03-.505-.035-.942.368-.975.901zm2.383 0h.016v1.548h-.596V4.42c-.227.304-.581.473-.948.45-.844 0-1.528-.72-1.528-1.612 0-.89.684-1.612 1.528-1.612.367-.022.72.147.948.451V.484h.58v2.773zm-8.282 0c0 .58.352 1.065.917 1.032.482 0 .88-.395.913-.903.034-.533-.349-.994-.854-1.03-.505-.035-.942.368-.976.901zm2.354 0v1.548h-.581V4.42c-.227.304-.58.473-.948.45-.843 0-1.528-.72-1.528-1.612 0-.89.685-1.612 1.528-1.612.367-.022.72.147.948.451V1.71h.58v1.548zm6.937 1.387h.092V4.58h-.092v.064zm.06-.097l.016-.016h-.153v.29h.046v-.08h.03l.093.097h.091l-.091-.097a.105.105 0 0 0 .06-.032.083.083 0 0 0 0-.129.108.108 0 0 0-.091-.033zm-.03.355a.11.11 0 0 0 .092-.032.07.07 0 0 0 .061-.065l.061-.064c0-.032.03-.065.03-.097a.123.123 0 0 0-.03-.097.07.07 0 0 0-.06-.064l-.062-.064c-.03 0-.061-.033-.092-.033a.108.108 0 0 0-.091.033.068.068 0 0 0-.061.064l-.062.064c0 .033-.03.065-.03.097a.124.124 0 0 0 .03.097.069.069 0 0 0 .062.064l.06.065a.11.11 0 0 0 .092.032zm0-.548a.177.177 0 0 1 .123.032c.069.03.124.088.152.161a.745.745 0 0 1 .031.13.2.2 0 0 1-.03.128c-.031.033-.031.065-.062.097a.161.161 0 0 1-.091.065.646.646 0 0 1-.123.032.175.175 0 0 1-.122-.032c-.03-.033-.061-.033-.092-.065a.174.174 0 0 1-.06-.097.774.774 0 0 1-.031-.129.203.203 0 0 1 .03-.129c.03-.032.03-.064.061-.096a.163.163 0 0 1 .092-.065c.03 0 .092-.032.122-.032zm-4.706-2.71a.906.906 0 0 0-.795.452V1.71h-.58v3.096h.58V3.064c0-.516.245-.839.642-.839.135.006.268.028.397.065l.184-.58a1.966 1.966 0 0 0-.413-.065h-.015zM6.532 3.258a1.048 1.048 0 0 0-.004.108c.012.523.424.937.92.924.482 0 .881-.395.913-.903.034-.533-.348-.994-.854-1.03-.505-.035-.942.368-.975.901zm2.383 0h.016v1.548H8.35V4.42c-.227.304-.58.473-.947.45-.844 0-1.529-.72-1.529-1.612 0-.89.685-1.612 1.529-1.612.366-.022.72.147.947.451V1.71h.565v1.548zm7.916-1.032c-.43-.023-.798.322-.826.774h1.59v-.04c-.02-.425-.362-.754-.764-.734zm0-.58c.825 0 1.375.645 1.39 1.612v.258h-2.17c.05.473.437.825.887.807.31-.01.61-.122.855-.323l.306.452c-.34.28-.76.428-1.192.419H16.733c-.792-.056-1.391-.777-1.339-1.613 0-.967.58-1.612 1.437-1.612zm4.125 1.612c-.049.84.556 1.562 1.352 1.613.059.004.118.004.176 0 .376.02.746-.106 1.04-.355l-.306-.484a1.182 1.182 0 0 1-.764.29c-.54-.044-.943-.543-.9-1.113.037-.507.419-.91.9-.95.278.002.548.104.764.29l.305-.484a1.477 1.477 0 0 0-1.039-.355c-.75-.095-1.432.47-1.522 1.263-.01.094-.013.19-.006.285zm-8.893-1.29a2.012 2.012 0 0 0-1.192-.322c-.733 0-1.192.355-1.192.967 0 .517.336.807.978.903l.306.033c.336.064.55.193.55.354 0 .226-.245.387-.703.387a1.552 1.552 0 0 1-.978-.322l-.306.484c.378.256.82.385 1.269.37.855 0 1.314-.419 1.314-1 0-.58-.367-.805-1.009-.902l-.305-.032c-.275-.033-.52-.13-.52-.323s.245-.387.58-.387c.32.015.633.103.918.258l.29-.468zm8.22-.322a.906.906 0 0 0-.794.451V1.71h-.58v3.096h.58V3.064c0-.516.245-.839.642-.839.134.006.268.028.397.065l.184-.58a1.98 1.98 0 0 0-.428-.065zm-5.439.097h-1.07V.806h-.58v.936h-.611v.548h.61V3.74c0 .71.245 1.129.979 1.129.278-.006.551-.083.794-.226l-.183-.548a.968.968 0 0 1-.55.161.436.436 0 0 1-.462-.413.466.466 0 0 1 .003-.103v-1.5h1.07v-.515.016zM5.31 4.805V2.87c.054-.618-.379-1.166-.965-1.223a.98.98 0 0 0-.166-.002 1.185 1.185 0 0 0-1.039.548 1.056 1.056 0 0 0-.978-.548 1.021 1.021 0 0 0-.886.451V1.71H.71v3.096h.58V3.032c-.045-.396.223-.756.598-.803a.633.633 0 0 1 .136-.004c.428 0 .672.29.672.807v1.773h.58V3.032c-.044-.396.224-.756.599-.803a.633.633 0 0 1 .135-.004c.428 0 .673.29.673.807v1.773h.641-.015z"/>
        <path id="b" d="M-2 5h36.129v-28H-2z"/>
    </defs>
    <g fill="none" fill-rule="evenodd" transform="translate(11 25)">
        <use fill="#797A7C" xlink:href="#a"/>
        <mask id="c" fill="#fff">
            <use xlink:href="#b"/>
        </mask>
        <path fill="#BBBDC1" d="M10.645-3.63h10.839v-17.06H10.645z" mask="url(#c)"/>
        <path fill="#9D9FA3" d="M11.816-12.161c.001-3.321 1.566-6.46 4.249-8.52-4.847-3.7-11.866-2.885-15.677 1.82-3.81 4.706-2.97 11.52 1.876 15.22 4.05 3.091 9.751 3.091 13.8 0-2.682-2.06-4.247-5.199-4.248-8.52" mask="url(#c)"/>
        <path fill="#CED0D4" d="M34.129-12.161c-.007 5.992-5.015 10.845-11.186 10.838a11.388 11.388 0 0 1-6.878-2.308c4.85-3.726 5.673-10.565 1.837-15.275a11.03 11.03 0 0 0-1.837-1.785c4.858-3.695 11.881-2.867 15.686 1.85a10.651 10.651 0 0 1 2.378 6.68" mask="url(#c)"/>
    </g>
</svg>
