<svg xmlns="http://www.w3.org/2000/svg" width="56" height="32" viewBox="0 0 56 32">
    <path fill="#8C8E92" fill-rule="evenodd" d="M27.703 10.25l-2.924 13.578h-3.536l2.924-13.578h3.536zm14.91 8.779l1.876-5.087 1.082 5.087h-2.96.002zm3.97 4.79h3.284l-2.85-13.579H43.99a1.613 1.613 0 0 0-1.516 1l-5.344 12.575h3.715l.722-2.041h4.548l.467 2.044zm-9.233-4.433c0-3.583-4.982-3.796-4.945-5.374 0-.5.471-1 1.516-1.147a6.789 6.789 0 0 1 3.496.604l.605-2.859A9.302 9.302 0 0 0 34.7 10c-3.502 0-5.956 1.861-5.993 4.48-.037 1.97 1.768 3.044 3.106 3.688 1.337.644 1.842 1.11 1.842 1.668 0 .897-1.12 1.334-2.131 1.334a7.31 7.31 0 0 1-3.647-.86l-.649 2.971c1.25.498 2.589.742 3.936.717 3.717.037 6.138-1.79 6.174-4.622l.01.01zM22.65 10.25l-5.74 13.578h-3.762l-2.817-10.853c-.181-.667-.336-.897-.83-1.18A14.315 14.315 0 0 0 6 10.646l.09-.397h6.03a1.646 1.646 0 0 1 1.624 1.398l1.479 7.844 3.697-9.242h3.755-.024z"/>
</svg>
